G04*
G04 #@! TF.GenerationSoftware,Altium Limited,Altium Designer,24.5.2 (23)*
G04*
G04 Layer_Physical_Order=4*
G04 Layer_Color=16711680*
%FSLAX25Y25*%
%MOIN*%
G70*
G04*
G04 #@! TF.SameCoordinates,54B51B4C-3849-4939-8346-CF3DF989E6B0*
G04*
G04*
G04 #@! TF.FilePolarity,Positive*
G04*
G01*
G75*
%ADD27C,0.03937*%
%ADD135C,0.01968*%
%ADD136C,0.03150*%
%ADD138C,0.03937*%
%ADD142C,0.05118*%
%ADD143C,0.05906*%
%ADD144C,0.06496*%
%ADD145R,0.06496X0.06496*%
%ADD146R,0.11811X0.11811*%
%ADD147C,0.11811*%
%ADD148R,0.05906X0.05906*%
%ADD149C,0.13780*%
%ADD150R,0.19685X0.07874*%
%ADD151R,0.07874X0.19685*%
%ADD152C,0.07874*%
%ADD153R,0.07874X0.07874*%
%ADD154C,0.03150*%
%ADD155C,0.02756*%
%ADD156C,0.02000*%
%ADD157C,0.04724*%
G36*
X39370Y340312D02*
X404492D01*
Y303150D01*
X404570Y302759D01*
X404791Y302429D01*
X405122Y302208D01*
X405512Y302130D01*
X459646D01*
X460036Y302208D01*
X460367Y302429D01*
X460588Y302759D01*
X460665Y303150D01*
Y340312D01*
X499300D01*
X499315Y340312D01*
X500000Y340312D01*
X500657Y340207D01*
X500672Y340204D01*
X501241Y339824D01*
X501622Y339254D01*
X501625Y339239D01*
X501729Y338583D01*
X501741Y338523D01*
X501741Y337883D01*
X501743Y308057D01*
X501756Y307988D01*
X501736Y307571D01*
X501920Y303834D01*
X502469Y300132D01*
X503378Y296502D01*
X504638Y292979D01*
X506238Y289597D01*
X508162Y286387D01*
X510391Y283381D01*
X512904Y280609D01*
X515677Y278096D01*
X518682Y275867D01*
X521892Y273943D01*
X525275Y272343D01*
X528798Y271082D01*
X532428Y270173D01*
X536129Y269624D01*
X537162Y269573D01*
Y181735D01*
X533465D01*
X533465Y181735D01*
Y181735D01*
X533380Y181719D01*
X531827Y181596D01*
X530231Y181213D01*
X528713Y180585D01*
X527313Y179727D01*
X526064Y178660D01*
X524998Y177411D01*
X524140Y176011D01*
X523511Y174494D01*
X523128Y172897D01*
X522999Y171260D01*
X523128Y169623D01*
X523511Y168026D01*
X524140Y166509D01*
X524998Y165109D01*
X526064Y163860D01*
X527313Y162793D01*
X528713Y161935D01*
X530231Y161307D01*
X531827Y160923D01*
X533380Y160801D01*
X533465Y160784D01*
X537162D01*
Y72948D01*
X536130Y72897D01*
X532429Y72348D01*
X528798Y71439D01*
X525275Y70178D01*
X521892Y68578D01*
X518682Y66654D01*
X515676Y64425D01*
X512903Y61912D01*
X510390Y59139D01*
X508161Y56133D01*
X506237Y52923D01*
X504637Y49540D01*
X503376Y46016D01*
X502467Y42386D01*
X501918Y38685D01*
X501734Y34947D01*
X501755Y34530D01*
X501741Y34461D01*
Y3996D01*
X501729Y3937D01*
X501729D01*
X501625Y3280D01*
X501622Y3265D01*
X501241Y2696D01*
X500672Y2315D01*
X500066Y2195D01*
X500000Y2208D01*
X362240D01*
Y33465D01*
X362162Y33855D01*
X361941Y34185D01*
X361611Y34407D01*
X361221Y34484D01*
X323819D01*
X323429Y34407D01*
X323098Y34185D01*
X322877Y33855D01*
X322799Y33465D01*
Y2208D01*
X39370D01*
X39304Y2195D01*
X38698Y2315D01*
X38129Y2696D01*
X37748Y3265D01*
X37745Y3280D01*
X37641Y3937D01*
X37641D01*
X37629Y3996D01*
Y34461D01*
X37615Y34530D01*
X37636Y34947D01*
X37452Y38685D01*
X36903Y42386D01*
X35994Y46016D01*
X34733Y49540D01*
X33133Y52923D01*
X31209Y56133D01*
X28980Y59139D01*
X26467Y61912D01*
X23694Y64425D01*
X20688Y66654D01*
X17478Y68578D01*
X14095Y70178D01*
X10572Y71439D01*
X6942Y72348D01*
X3240Y72897D01*
X2208Y72948D01*
Y160784D01*
X5906D01*
X5906Y160784D01*
Y160784D01*
X5990Y160801D01*
X7543Y160923D01*
X9139Y161307D01*
X10657Y161935D01*
X12057Y162793D01*
X13306Y163860D01*
X14372Y165109D01*
X15230Y166509D01*
X15859Y168026D01*
X16242Y169623D01*
X16371Y171260D01*
X16242Y172897D01*
X15859Y174494D01*
X15230Y176011D01*
X14372Y177411D01*
X13306Y178660D01*
X12057Y179727D01*
X10657Y180585D01*
X9139Y181213D01*
X7543Y181596D01*
X5990Y181719D01*
X5906Y181735D01*
X2196D01*
Y269571D01*
X3240Y269623D01*
X6942Y270172D01*
X10572Y271081D01*
X14095Y272342D01*
X17478Y273942D01*
X20688Y275866D01*
X23694Y278095D01*
X26467Y280608D01*
X28980Y283381D01*
X31209Y286387D01*
X33133Y289597D01*
X34733Y292980D01*
X35994Y296503D01*
X36903Y300133D01*
X37452Y303835D01*
X37636Y307573D01*
X37615Y307990D01*
X37629Y308059D01*
Y338523D01*
X37641Y338583D01*
X37641D01*
X37745Y339239D01*
X37748Y339254D01*
X38129Y339824D01*
X38698Y340205D01*
X39304Y340325D01*
X39370Y340312D01*
D02*
G37*
%LPC*%
G36*
X158501Y333177D02*
X158480D01*
Y329724D01*
X161933D01*
Y329745D01*
X161664Y330750D01*
X161143Y331651D01*
X160407Y332387D01*
X159506Y332908D01*
X158501Y333177D01*
D02*
G37*
G36*
X157480D02*
X157460D01*
X156455Y332908D01*
X155553Y332387D01*
X154817Y331651D01*
X154297Y330750D01*
X154028Y329745D01*
Y329724D01*
X157480D01*
Y333177D01*
D02*
G37*
G36*
X105374Y333283D02*
X105225D01*
Y328846D01*
X109661D01*
Y328996D01*
X109325Y330252D01*
X108675Y331378D01*
X107756Y332297D01*
X106630Y332947D01*
X105374Y333283D01*
D02*
G37*
G36*
X104225D02*
X104074D01*
X102819Y332947D01*
X101693Y332297D01*
X100774Y331378D01*
X100124Y330252D01*
X99787Y328996D01*
Y328846D01*
X104225D01*
Y333283D01*
D02*
G37*
G36*
X161933Y328724D02*
X158480D01*
Y325272D01*
X158501D01*
X159506Y325541D01*
X160407Y326061D01*
X161143Y326797D01*
X161664Y327699D01*
X161933Y328704D01*
Y328724D01*
D02*
G37*
G36*
X157480D02*
X154028D01*
Y328704D01*
X154297Y327699D01*
X154817Y326797D01*
X155553Y326061D01*
X156455Y325541D01*
X157460Y325272D01*
X157480D01*
Y328724D01*
D02*
G37*
G36*
X104225Y327846D02*
X99787D01*
Y327696D01*
X100124Y326441D01*
X100774Y325315D01*
X101693Y324396D01*
X102819Y323746D01*
X104074Y323409D01*
X104225D01*
Y327846D01*
D02*
G37*
G36*
X244485Y319091D02*
X243704D01*
X242949Y318888D01*
X242272Y318497D01*
X241719Y317945D01*
X241328Y317268D01*
X241126Y316513D01*
Y315731D01*
X241328Y314976D01*
X241719Y314299D01*
X242272Y313747D01*
X242949Y313356D01*
X243704Y313154D01*
X244485D01*
X245240Y313356D01*
X245917Y313747D01*
X246470Y314299D01*
X246861Y314976D01*
X247063Y315731D01*
Y316513D01*
X246861Y317268D01*
X246470Y317945D01*
X245917Y318497D01*
X245240Y318888D01*
X244485Y319091D01*
D02*
G37*
G36*
X81709Y314779D02*
X71366D01*
Y310343D01*
X81709D01*
Y314779D01*
D02*
G37*
G36*
Y309343D02*
X71366D01*
Y304906D01*
X81709D01*
Y309343D01*
D02*
G37*
G36*
X326611Y307038D02*
X325687Y306917D01*
X324825Y306560D01*
X324084Y305992D01*
X310090Y291997D01*
X309522Y291257D01*
X309165Y290395D01*
X309043Y289470D01*
X309165Y288545D01*
X309522Y287683D01*
X310090Y286943D01*
X310830Y286375D01*
X311692Y286018D01*
X312617Y285896D01*
X313542Y286018D01*
X314404Y286375D01*
X315144Y286943D01*
X329139Y300937D01*
X329707Y301678D01*
X330064Y302540D01*
X330185Y303465D01*
X330064Y304390D01*
X329707Y305252D01*
X329139Y305992D01*
X328398Y306560D01*
X327537Y306917D01*
X326611Y307038D01*
D02*
G37*
G36*
X244563Y290193D02*
X243626D01*
X242721Y289950D01*
X241909Y289482D01*
X241247Y288819D01*
X240778Y288008D01*
X240535Y287102D01*
Y286165D01*
X240778Y285260D01*
X241247Y284449D01*
X241909Y283786D01*
X242721Y283317D01*
X243626Y283075D01*
X244563D01*
X245468Y283317D01*
X246280Y283786D01*
X246942Y284449D01*
X247411Y285260D01*
X247654Y286165D01*
Y287102D01*
X247411Y288008D01*
X246942Y288819D01*
X246280Y289482D01*
X245468Y289950D01*
X244563Y290193D01*
D02*
G37*
G36*
X132146Y286827D02*
X131996D01*
Y282390D01*
X136433D01*
Y282540D01*
X136097Y283795D01*
X135447Y284921D01*
X134527Y285840D01*
X133402Y286490D01*
X132146Y286827D01*
D02*
G37*
G36*
X109661Y327846D02*
X105225D01*
Y323409D01*
X105374D01*
X105918Y323555D01*
X106280Y322927D01*
X106089Y322736D01*
X105227Y321446D01*
X104633Y320013D01*
X104331Y318492D01*
Y316941D01*
X104633Y315420D01*
X104976Y314592D01*
X104587Y314010D01*
X104331D01*
X103303Y313875D01*
X102345Y313478D01*
X101523Y312847D01*
X100892Y312025D01*
X100495Y311067D01*
X100360Y310039D01*
Y300197D01*
X100495Y299169D01*
X100892Y298211D01*
X101523Y297389D01*
X102345Y296758D01*
X103303Y296361D01*
X104331Y296226D01*
X104587D01*
X104976Y295644D01*
X104633Y294816D01*
X104331Y293295D01*
Y291744D01*
X104633Y290223D01*
X105227Y288790D01*
X106089Y287500D01*
X107185Y286403D01*
X108475Y285542D01*
X109908Y284948D01*
X111429Y284646D01*
X112980D01*
X114502Y284948D01*
X115935Y285542D01*
X117224Y286403D01*
X118110Y287290D01*
X118996Y286403D01*
X120286Y285542D01*
X121719Y284948D01*
X123240Y284646D01*
X124791D01*
X126312Y284948D01*
X126891Y285188D01*
X127379Y284632D01*
X126895Y283795D01*
X126559Y282540D01*
Y282390D01*
X130996D01*
Y286827D01*
X130846D01*
X130303Y286681D01*
X129940Y287309D01*
X130132Y287500D01*
X130994Y288790D01*
X131587Y290223D01*
X131890Y291744D01*
Y293295D01*
X131587Y294816D01*
X131245Y295644D01*
X131633Y296226D01*
X169291D01*
X170319Y296361D01*
X171277Y296758D01*
X172099Y297389D01*
X172730Y298211D01*
X173127Y299169D01*
X173262Y300197D01*
Y316929D01*
X173127Y317957D01*
X172730Y318915D01*
X172099Y319737D01*
X171277Y320368D01*
X170319Y320765D01*
X169291Y320900D01*
X138780D01*
X138779Y320900D01*
X137752Y320765D01*
X136794Y320368D01*
X135972Y319737D01*
X132536Y316302D01*
X131890Y316570D01*
Y325590D01*
X116142D01*
Y325366D01*
X115442Y324899D01*
X114502Y325288D01*
X112980Y325590D01*
X111429D01*
X109908Y325288D01*
X109329Y325048D01*
X108842Y325604D01*
X109325Y326441D01*
X109661Y327696D01*
Y327846D01*
D02*
G37*
G36*
X70366Y314779D02*
X60024D01*
Y311811D01*
X44488D01*
Y284252D01*
X48391D01*
Y246920D01*
X29672Y228202D01*
X29041Y227379D01*
X28645Y226421D01*
X28509Y225394D01*
Y113189D01*
X28645Y112161D01*
X29041Y111204D01*
X29672Y110381D01*
X41607Y98447D01*
Y94717D01*
X41742Y93690D01*
X42139Y92732D01*
X42770Y91910D01*
X43592Y91278D01*
X44550Y90882D01*
X45578Y90746D01*
X46606Y90882D01*
X47563Y91278D01*
X48386Y91910D01*
X49017Y92732D01*
X49413Y93690D01*
X49549Y94717D01*
Y100092D01*
X49413Y101119D01*
X49017Y102077D01*
X48386Y102899D01*
X36451Y114834D01*
Y223749D01*
X55170Y242468D01*
X55801Y243290D01*
X56198Y244248D01*
X56333Y245276D01*
Y284252D01*
X57087D01*
Y277559D01*
X84646D01*
Y293307D01*
X60236D01*
Y304906D01*
X70366D01*
Y309842D01*
Y314779D01*
D02*
G37*
G36*
X136433Y281390D02*
X131996D01*
Y276953D01*
X132146D01*
X133402Y277289D01*
X134527Y277939D01*
X135447Y278858D01*
X136097Y279984D01*
X136433Y281240D01*
Y281390D01*
D02*
G37*
G36*
X130996D02*
X126559D01*
Y281240D01*
X126895Y279984D01*
X127545Y278858D01*
X128465Y277939D01*
X129590Y277289D01*
X130846Y276953D01*
X130996D01*
Y281390D01*
D02*
G37*
G36*
X244094Y274069D02*
X243067Y273934D01*
X242109Y273537D01*
X241287Y272906D01*
X240873Y272493D01*
X240242Y271671D01*
X239845Y270713D01*
X239710Y269685D01*
X239845Y268657D01*
X240242Y267700D01*
X240873Y266877D01*
X241696Y266246D01*
X242653Y265849D01*
X243681Y265714D01*
X244709Y265849D01*
X245667Y266246D01*
X246489Y266877D01*
X246902Y267290D01*
X247533Y268113D01*
X247930Y269071D01*
X248065Y270098D01*
X247930Y271126D01*
X247533Y272084D01*
X246902Y272906D01*
X246080Y273537D01*
X245122Y273934D01*
X244094Y274069D01*
D02*
G37*
G36*
X263600Y282922D02*
X262675Y282800D01*
X261813Y282443D01*
X261073Y281875D01*
X261073Y281875D01*
X254363Y275165D01*
X253795Y274425D01*
X253438Y273563D01*
X253316Y272638D01*
Y257158D01*
X252616Y256892D01*
X251986Y257376D01*
X251028Y257773D01*
X250000Y257908D01*
X226053D01*
X225785Y258555D01*
X234107Y266877D01*
X234738Y267700D01*
X235135Y268657D01*
X235270Y269685D01*
X235135Y270713D01*
X234738Y271671D01*
X234107Y272493D01*
X233285Y273124D01*
X232327Y273521D01*
X231299Y273656D01*
X230271Y273521D01*
X229314Y273124D01*
X228491Y272493D01*
X216680Y260682D01*
X216049Y259859D01*
X215652Y258902D01*
X215517Y257874D01*
Y148622D01*
X215652Y147594D01*
X216049Y146637D01*
X216680Y145814D01*
X230666Y131828D01*
Y123550D01*
X230069Y123351D01*
X229966Y123346D01*
X229436Y123877D01*
X228759Y124268D01*
X228004Y124470D01*
X227222D01*
X226467Y124268D01*
X225791Y123877D01*
X225238Y123324D01*
X224847Y122647D01*
X224645Y121892D01*
Y121111D01*
X224847Y120356D01*
X225238Y119679D01*
X225791Y119126D01*
X226467Y118735D01*
X227222Y118533D01*
X228004D01*
X228759Y118735D01*
X229436Y119126D01*
X229989Y119679D01*
X230162Y119980D01*
X230941Y119929D01*
X231199Y119307D01*
X231830Y118485D01*
X232652Y117854D01*
X233610Y117457D01*
X234637Y117322D01*
X235665Y117457D01*
X236623Y117854D01*
X237445Y118485D01*
X238076Y119307D01*
X238473Y120265D01*
X238608Y121293D01*
Y133473D01*
X238473Y134501D01*
X238076Y135458D01*
X237445Y136281D01*
X225908Y147818D01*
X226176Y148465D01*
X236221D01*
Y162244D01*
X236130D01*
X235741Y162826D01*
X235956Y163345D01*
X236221Y164676D01*
Y166033D01*
X235956Y167364D01*
X235436Y168618D01*
X234682Y169746D01*
X234074Y170354D01*
X234682Y170962D01*
X235436Y172091D01*
X235956Y173345D01*
X236221Y174676D01*
Y176033D01*
X235956Y177364D01*
X235436Y178618D01*
X234682Y179746D01*
X234074Y180354D01*
X234682Y180962D01*
X235436Y182091D01*
X235956Y183345D01*
X236221Y184676D01*
Y186033D01*
X235956Y187364D01*
X235436Y188618D01*
X234682Y189746D01*
X234074Y190354D01*
X234682Y190962D01*
X235436Y192091D01*
X235956Y193345D01*
X236221Y194676D01*
Y196033D01*
X235956Y197364D01*
X235436Y198618D01*
X234682Y199746D01*
X234074Y200354D01*
X234682Y200962D01*
X235436Y202091D01*
X235956Y203345D01*
X236221Y204676D01*
Y206033D01*
X235956Y207364D01*
X235436Y208618D01*
X234682Y209746D01*
X233723Y210706D01*
X232594Y211460D01*
X231618Y211864D01*
X231757Y212564D01*
X250000D01*
X251028Y212700D01*
X251986Y213096D01*
X252808Y213727D01*
X253439Y214550D01*
X253836Y215508D01*
X253971Y216535D01*
Y229284D01*
X254671Y229574D01*
X261404Y222841D01*
X262144Y222273D01*
X263006Y221916D01*
X263931Y221794D01*
X263931Y221794D01*
X289246D01*
X290171Y221916D01*
X291033Y222273D01*
X291773Y222841D01*
X292341Y223581D01*
X292698Y224443D01*
X292819Y225368D01*
X292698Y226293D01*
X292341Y227155D01*
X291773Y227895D01*
X291033Y228463D01*
X290171Y228820D01*
X289246Y228942D01*
X265412D01*
X260464Y233890D01*
Y242264D01*
X261046Y242653D01*
X261161Y242605D01*
X262189Y242470D01*
X294617D01*
X295644Y242605D01*
X296602Y243002D01*
X297425Y243633D01*
X297858Y244198D01*
X298135Y244452D01*
X298801Y244425D01*
X299051Y244281D01*
X299806Y244079D01*
X300588D01*
X301343Y244281D01*
X302020Y244672D01*
X302572Y245224D01*
X302963Y245901D01*
X303165Y246656D01*
Y247438D01*
X302963Y248193D01*
X302572Y248870D01*
X302020Y249423D01*
X301343Y249814D01*
X300588Y250016D01*
X299806D01*
X299288Y249877D01*
X298588Y250273D01*
Y266732D01*
X298452Y267760D01*
X298056Y268718D01*
X297425Y269540D01*
X296602Y270171D01*
X295644Y270568D01*
X294617Y270703D01*
X262189D01*
X261556Y270620D01*
X260882Y271097D01*
X260833Y271190D01*
X260806Y271500D01*
X265081Y275774D01*
X274267D01*
X275191Y275896D01*
X276054Y276253D01*
X276794Y276821D01*
X277362Y277561D01*
X277719Y278423D01*
X277840Y279348D01*
X277719Y280273D01*
X277362Y281135D01*
X276794Y281875D01*
X276054Y282443D01*
X275191Y282800D01*
X274267Y282922D01*
X263600D01*
X263600Y282922D01*
D02*
G37*
G36*
X528077Y263779D02*
X527041D01*
X526039Y263511D01*
X525142Y262993D01*
X524409Y262260D01*
X523890Y261362D01*
X523622Y260361D01*
Y259324D01*
X523890Y258323D01*
X524409Y257425D01*
X525142Y256692D01*
X526039Y256174D01*
X527041Y255906D01*
X528077D01*
X529079Y256174D01*
X529976Y256692D01*
X530709Y257425D01*
X531228Y258323D01*
X531496Y259324D01*
Y260361D01*
X531228Y261362D01*
X530709Y262260D01*
X529976Y262993D01*
X529079Y263511D01*
X528077Y263779D01*
D02*
G37*
G36*
X17253Y256906D02*
X17232D01*
Y253453D01*
X20685D01*
Y253473D01*
X20416Y254479D01*
X19895Y255380D01*
X19159Y256116D01*
X18258Y256636D01*
X17253Y256906D01*
D02*
G37*
G36*
X16232D02*
X16212D01*
X15207Y256636D01*
X14305Y256116D01*
X13569Y255380D01*
X13049Y254479D01*
X12779Y253473D01*
Y253453D01*
X16232D01*
Y256906D01*
D02*
G37*
G36*
X20685Y252453D02*
X17232D01*
Y249000D01*
X17253D01*
X18258Y249269D01*
X19159Y249790D01*
X19895Y250526D01*
X20416Y251427D01*
X20685Y252432D01*
Y252453D01*
D02*
G37*
G36*
X16232D02*
X12779D01*
Y252432D01*
X13049Y251427D01*
X13569Y250526D01*
X14305Y249790D01*
X15207Y249269D01*
X16212Y249000D01*
X16232D01*
Y252453D01*
D02*
G37*
G36*
X37096Y259842D02*
X35739D01*
X34408Y259578D01*
X33154Y259058D01*
X32025Y258304D01*
X31066Y257345D01*
X30312Y256216D01*
X29792Y254962D01*
X29528Y253631D01*
Y252274D01*
X29792Y250943D01*
X30312Y249689D01*
X31066Y248561D01*
X32025Y247601D01*
X33154Y246847D01*
X34408Y246328D01*
X35739Y246063D01*
X37096D01*
X38427Y246328D01*
X39681Y246847D01*
X40809Y247601D01*
X41769Y248561D01*
X42523Y249689D01*
X43042Y250943D01*
X43307Y252274D01*
Y253631D01*
X43042Y254962D01*
X42523Y256216D01*
X41769Y257345D01*
X40809Y258304D01*
X39681Y259058D01*
X38427Y259578D01*
X37096Y259842D01*
D02*
G37*
G36*
X321257Y246079D02*
X320475D01*
X319720Y245877D01*
X319043Y245486D01*
X318491Y244933D01*
X318100Y244256D01*
X317898Y243501D01*
Y242719D01*
X318100Y241964D01*
X318491Y241287D01*
X319043Y240735D01*
X319720Y240344D01*
X320475Y240142D01*
X321257D01*
X322012Y240344D01*
X322689Y240735D01*
X323241Y241287D01*
X323632Y241964D01*
X323835Y242719D01*
Y243501D01*
X323632Y244256D01*
X323241Y244933D01*
X322689Y245486D01*
X322012Y245877D01*
X321257Y246079D01*
D02*
G37*
G36*
X389764Y265774D02*
X388993Y265672D01*
X388275Y265374D01*
X387658Y264901D01*
X387185Y264284D01*
X386887Y263566D01*
X386786Y262795D01*
Y253202D01*
X360099Y226515D01*
X359626Y225899D01*
X359328Y225180D01*
X359226Y224410D01*
X359328Y223639D01*
X359626Y222920D01*
X360099Y222304D01*
X360716Y221830D01*
X361434Y221533D01*
X362205Y221431D01*
X362976Y221533D01*
X363694Y221830D01*
X364311Y222304D01*
X391870Y249863D01*
X391870Y249863D01*
X392343Y250479D01*
X392640Y251198D01*
X392742Y251969D01*
X392742Y251969D01*
Y262795D01*
X392640Y263566D01*
X392343Y264284D01*
X391870Y264901D01*
X391253Y265374D01*
X390535Y265672D01*
X389764Y265774D01*
D02*
G37*
G36*
X12329Y224409D02*
X11293D01*
X10291Y224141D01*
X9394Y223623D01*
X8661Y222890D01*
X8142Y221992D01*
X7874Y220991D01*
Y219954D01*
X8142Y218953D01*
X8661Y218055D01*
X9394Y217322D01*
X10291Y216804D01*
X11293Y216535D01*
X12329D01*
X13331Y216804D01*
X14228Y217322D01*
X14961Y218055D01*
X15480Y218953D01*
X15748Y219954D01*
Y220991D01*
X15480Y221992D01*
X14961Y222890D01*
X14228Y223623D01*
X13331Y224141D01*
X12329Y224409D01*
D02*
G37*
G36*
X118887Y202772D02*
X118610D01*
Y195382D01*
X126000D01*
Y195659D01*
X125697Y197183D01*
X125102Y198619D01*
X124239Y199911D01*
X123140Y201010D01*
X121847Y201874D01*
X120412Y202468D01*
X118887Y202772D01*
D02*
G37*
G36*
X117610D02*
X117333D01*
X115809Y202468D01*
X114373Y201874D01*
X113081Y201010D01*
X111982Y199911D01*
X111118Y198619D01*
X110524Y197183D01*
X110221Y195659D01*
Y195382D01*
X117610D01*
Y202772D01*
D02*
G37*
G36*
X364173Y220498D02*
X363402Y220396D01*
X362684Y220099D01*
X362067Y219626D01*
X361594Y219009D01*
X361297Y218290D01*
X361195Y217520D01*
X361297Y216749D01*
X361594Y216031D01*
X362067Y215414D01*
X363406Y214075D01*
X362067Y212736D01*
X361594Y212119D01*
X361297Y211401D01*
X361195Y210630D01*
X361297Y209859D01*
X361594Y209141D01*
X362067Y208524D01*
X362684Y208051D01*
X363402Y207753D01*
X364173Y207652D01*
X364944Y207753D01*
X365662Y208051D01*
X366279Y208524D01*
X367375Y209620D01*
X504672D01*
X507849Y206444D01*
Y192547D01*
X507858Y192473D01*
Y192156D01*
X507940Y191850D01*
X507950Y191776D01*
X507978Y191708D01*
X508061Y191401D01*
X508219Y191127D01*
X508248Y191058D01*
X508293Y190999D01*
X508451Y190725D01*
X508675Y190500D01*
X508721Y190441D01*
X508780Y190396D01*
X509004Y190172D01*
X509279Y190013D01*
X509338Y189968D01*
X509406Y189939D01*
X509681Y189781D01*
X509987Y189699D01*
X510056Y189671D01*
X510130Y189661D01*
X510436Y189579D01*
X510753D01*
X510827Y189569D01*
X510901Y189579D01*
X511218D01*
X511524Y189661D01*
X511598Y189671D01*
X511666Y189699D01*
X511973Y189781D01*
X512247Y189939D01*
X512316Y189968D01*
X512375Y190013D01*
X512649Y190172D01*
X512874Y190396D01*
X512933Y190441D01*
X512978Y190500D01*
X513202Y190725D01*
X513361Y190999D01*
X513406Y191058D01*
X513435Y191127D01*
X513593Y191401D01*
X513675Y191708D01*
X513703Y191776D01*
X513713Y191850D01*
X513795Y192156D01*
Y192473D01*
X513805Y192547D01*
Y207677D01*
X513703Y208448D01*
X513406Y209166D01*
X512933Y209783D01*
X512933Y209783D01*
X510743Y211973D01*
X510783Y212142D01*
X511076Y212630D01*
X511218D01*
X511524Y212712D01*
X511598Y212722D01*
X511666Y212750D01*
X511973Y212832D01*
X512247Y212991D01*
X512316Y213019D01*
X512375Y213065D01*
X512649Y213223D01*
X512874Y213447D01*
X512933Y213492D01*
X512978Y213552D01*
X513202Y213776D01*
X513361Y214050D01*
X513406Y214109D01*
X513435Y214178D01*
X513593Y214453D01*
X513675Y214759D01*
X513703Y214828D01*
X513713Y214901D01*
X513795Y215208D01*
Y215525D01*
X513805Y215598D01*
X513795Y215672D01*
Y215989D01*
X513713Y216295D01*
X513703Y216369D01*
X513675Y216438D01*
X513593Y216744D01*
X513435Y217019D01*
X513406Y217088D01*
X513361Y217147D01*
X513202Y217421D01*
X512978Y217645D01*
X512933Y217704D01*
X512874Y217750D01*
X512649Y217974D01*
X512375Y218132D01*
X512316Y218178D01*
X512247Y218206D01*
X511973Y218365D01*
X511666Y218447D01*
X511598Y218475D01*
X511524Y218485D01*
X511218Y218567D01*
X510901D01*
X510827Y218577D01*
X367328D01*
X366279Y219626D01*
X365662Y220099D01*
X364944Y220396D01*
X364173Y220498D01*
D02*
G37*
G36*
X126000Y194382D02*
X118610D01*
Y186992D01*
X118887D01*
X120412Y187295D01*
X121847Y187890D01*
X123140Y188753D01*
X124239Y189852D01*
X125102Y191145D01*
X125697Y192580D01*
X126000Y194105D01*
Y194382D01*
D02*
G37*
G36*
X117610D02*
X110221D01*
Y194105D01*
X110524Y192580D01*
X111118Y191145D01*
X111982Y189852D01*
X113081Y188753D01*
X114373Y187890D01*
X115809Y187295D01*
X117333Y186992D01*
X117610D01*
Y194382D01*
D02*
G37*
G36*
X98962Y205709D02*
X97258D01*
X95575Y205442D01*
X93954Y204915D01*
X92436Y204142D01*
X91057Y203140D01*
X89852Y201935D01*
X88850Y200556D01*
X88077Y199038D01*
X87888Y198456D01*
X86614D01*
X85689Y198334D01*
X84827Y197977D01*
X84087Y197409D01*
X62886Y176208D01*
X62318Y175468D01*
X61961Y174606D01*
X61839Y173681D01*
Y150965D01*
X61961Y150040D01*
X62318Y149178D01*
X62886Y148437D01*
X63626Y147870D01*
X64488Y147512D01*
X65413Y147391D01*
X66338Y147512D01*
X67200Y147870D01*
X67940Y148437D01*
X68508Y149178D01*
X68866Y150040D01*
X68987Y150965D01*
Y172201D01*
X87434Y190648D01*
X88220Y190444D01*
X88850Y189207D01*
X89852Y187829D01*
X91057Y186624D01*
X92436Y185622D01*
X93954Y184848D01*
X95575Y184322D01*
X97258Y184055D01*
X98962D01*
X100645Y184322D01*
X102266Y184848D01*
X103785Y185622D01*
X105163Y186624D01*
X106368Y187829D01*
X107370Y189207D01*
X108144Y190726D01*
X108670Y192347D01*
X108937Y194030D01*
Y195734D01*
X108670Y197417D01*
X108144Y199038D01*
X107370Y200556D01*
X106368Y201935D01*
X105163Y203140D01*
X103785Y204142D01*
X102266Y204915D01*
X100645Y205442D01*
X98962Y205709D01*
D02*
G37*
G36*
X79584Y173618D02*
X78802D01*
X78047Y173416D01*
X77370Y173025D01*
X76818Y172472D01*
X76427Y171795D01*
X76224Y171040D01*
Y170259D01*
X76427Y169504D01*
X76818Y168827D01*
X77370Y168274D01*
X78047Y167883D01*
X78802Y167681D01*
X79584D01*
X80339Y167883D01*
X81016Y168274D01*
X81568Y168827D01*
X81959Y169504D01*
X82161Y170259D01*
Y171040D01*
X81959Y171795D01*
X81568Y172472D01*
X81016Y173025D01*
X80339Y173416D01*
X79584Y173618D01*
D02*
G37*
G36*
X49317Y160823D02*
X48535D01*
X47780Y160621D01*
X47103Y160230D01*
X46551Y159677D01*
X46160Y159000D01*
X45957Y158245D01*
Y157464D01*
X46160Y156709D01*
X46551Y156032D01*
X47103Y155479D01*
X47780Y155088D01*
X48535Y154886D01*
X49317D01*
X50072Y155088D01*
X50749Y155479D01*
X51301Y156032D01*
X51692Y156709D01*
X51894Y157464D01*
Y158245D01*
X51692Y159000D01*
X51301Y159677D01*
X50749Y160230D01*
X50072Y160621D01*
X49317Y160823D01*
D02*
G37*
G36*
X74663Y159839D02*
X73881D01*
X73126Y159636D01*
X72449Y159246D01*
X71896Y158693D01*
X71505Y158016D01*
X71303Y157261D01*
Y156479D01*
X71505Y155724D01*
X71896Y155047D01*
X72449Y154495D01*
X73126Y154104D01*
X73881Y153902D01*
X74663D01*
X75417Y154104D01*
X76094Y154495D01*
X76647Y155047D01*
X77038Y155724D01*
X77240Y156479D01*
Y157261D01*
X77038Y158016D01*
X76647Y158693D01*
X76094Y159246D01*
X75417Y159636D01*
X74663Y159839D01*
D02*
G37*
G36*
X421651Y158480D02*
X420869D01*
X420114Y158278D01*
X419437Y157887D01*
X418884Y157334D01*
X418494Y156658D01*
X418291Y155903D01*
Y155121D01*
X418494Y154366D01*
X418884Y153689D01*
X419437Y153136D01*
X420114Y152746D01*
X420869Y152543D01*
X421651D01*
X422406Y152746D01*
X423082Y153136D01*
X423635Y153689D01*
X424026Y154366D01*
X424228Y155121D01*
Y155903D01*
X424026Y156658D01*
X423635Y157334D01*
X423082Y157887D01*
X422406Y158278D01*
X421651Y158480D01*
D02*
G37*
G36*
X490158Y179159D02*
X417323D01*
X416552Y179058D01*
X415834Y178760D01*
X415217Y178287D01*
X415217Y178287D01*
X411168Y174238D01*
X408465D01*
X408391Y174228D01*
X408074D01*
X407768Y174146D01*
X407694Y174137D01*
X407625Y174108D01*
X407319Y174026D01*
X407044Y173868D01*
X406976Y173839D01*
X406916Y173794D01*
X406642Y173635D01*
X406418Y173411D01*
X406359Y173366D01*
X406313Y173307D01*
X406089Y173082D01*
X405931Y172808D01*
X405885Y172749D01*
X405857Y172680D01*
X405698Y172406D01*
X405616Y172099D01*
X405588Y172031D01*
X405578Y171957D01*
X405496Y171651D01*
Y171334D01*
X405486Y171260D01*
X405496Y171186D01*
Y170869D01*
X405578Y170563D01*
X405588Y170489D01*
X405616Y170420D01*
X405698Y170114D01*
X405857Y169840D01*
X405885Y169771D01*
X405931Y169712D01*
X406089Y169437D01*
X406313Y169213D01*
X406359Y169154D01*
X406418Y169108D01*
X406642Y168884D01*
X406916Y168726D01*
X406976Y168681D01*
X407044Y168652D01*
X407319Y168494D01*
X407625Y168412D01*
X407694Y168383D01*
X407768Y168373D01*
X408074Y168291D01*
X408391D01*
X408465Y168282D01*
X410272D01*
X410276Y168278D01*
X410461Y168122D01*
X410676Y167582D01*
X410620Y167484D01*
X410538Y167178D01*
X410509Y167109D01*
X410499Y167035D01*
X410417Y166729D01*
Y166412D01*
X410408Y166339D01*
X410417Y166265D01*
Y165948D01*
X410499Y165642D01*
X410509Y165568D01*
X410538Y165499D01*
X410620Y165193D01*
X410778Y164918D01*
X410807Y164849D01*
X410852Y164790D01*
X411010Y164516D01*
X411235Y164292D01*
X411280Y164233D01*
X411339Y164187D01*
X411563Y163963D01*
X411838Y163805D01*
X411897Y163759D01*
X411966Y163731D01*
X412240Y163572D01*
X412546Y163490D01*
X412615Y163462D01*
X412689Y163452D01*
X412995Y163370D01*
X413312D01*
X413386Y163360D01*
X413460Y163370D01*
X413777D01*
X414083Y163452D01*
X414157Y163462D01*
X414225Y163490D01*
X414532Y163572D01*
X414806Y163731D01*
X414875Y163759D01*
X414934Y163805D01*
X415208Y163963D01*
X415433Y164187D01*
X415492Y164233D01*
X420525Y169266D01*
X451111D01*
X451250Y168566D01*
X450969Y168449D01*
X450229Y167881D01*
X449661Y167141D01*
X449304Y166279D01*
X449182Y165354D01*
X449304Y164429D01*
X449661Y163567D01*
X450229Y162827D01*
X450969Y162259D01*
X451831Y161902D01*
X452756Y161781D01*
X469976D01*
X482647Y149110D01*
Y110236D01*
X482768Y109311D01*
X483125Y108449D01*
X483693Y107709D01*
X484434Y107141D01*
X485295Y106784D01*
X486221Y106662D01*
X487146Y106784D01*
X488007Y107141D01*
X488748Y107709D01*
X489316Y108449D01*
X489673Y109311D01*
X489794Y110236D01*
Y150591D01*
X489673Y151515D01*
X489316Y152377D01*
X488748Y153118D01*
X473984Y167881D01*
X473244Y168449D01*
X472887Y168597D01*
X473102Y169266D01*
X487940D01*
X505768Y151437D01*
X506385Y150964D01*
X507103Y150667D01*
X507874Y150565D01*
X508645Y150667D01*
X509363Y150964D01*
X509980Y151437D01*
X510453Y152054D01*
X510751Y152772D01*
X510852Y153543D01*
X510751Y154314D01*
X510453Y155032D01*
X510512Y155480D01*
X510708Y155630D01*
X511181Y156247D01*
X511479Y156965D01*
X511581Y157736D01*
X511479Y158507D01*
X511181Y159225D01*
X510708Y159842D01*
X492263Y178287D01*
X491647Y178760D01*
X490928Y179058D01*
X490158Y179159D01*
D02*
G37*
G36*
X497064Y147653D02*
X496282D01*
X495527Y147451D01*
X494850Y147060D01*
X494298Y146508D01*
X493907Y145831D01*
X493705Y145076D01*
Y144294D01*
X493907Y143539D01*
X494298Y142862D01*
X494850Y142310D01*
X495527Y141919D01*
X496282Y141717D01*
X497064D01*
X497819Y141919D01*
X498496Y142310D01*
X499049Y142862D01*
X499439Y143539D01*
X499642Y144294D01*
Y145076D01*
X499439Y145831D01*
X499049Y146508D01*
X498496Y147060D01*
X497819Y147451D01*
X497064Y147653D01*
D02*
G37*
G36*
X49317Y147043D02*
X48535D01*
X47780Y146841D01*
X47103Y146450D01*
X46551Y145897D01*
X46160Y145221D01*
X45957Y144466D01*
Y143684D01*
X46160Y142929D01*
X46551Y142252D01*
X47103Y141699D01*
X47780Y141309D01*
X48535Y141106D01*
X49317D01*
X50072Y141309D01*
X50749Y141699D01*
X51301Y142252D01*
X51692Y142929D01*
X51894Y143684D01*
Y144466D01*
X51692Y145221D01*
X51301Y145897D01*
X50749Y146450D01*
X50072Y146841D01*
X49317Y147043D01*
D02*
G37*
G36*
X443304Y146669D02*
X442523D01*
X441768Y146467D01*
X441091Y146076D01*
X440538Y145524D01*
X440147Y144847D01*
X439945Y144092D01*
Y143310D01*
X440147Y142555D01*
X440538Y141878D01*
X441091Y141325D01*
X441768Y140935D01*
X442523Y140732D01*
X443304D01*
X444059Y140935D01*
X444736Y141325D01*
X445289Y141878D01*
X445680Y142555D01*
X445882Y143310D01*
Y144092D01*
X445680Y144847D01*
X445289Y145524D01*
X444736Y146076D01*
X444059Y146467D01*
X443304Y146669D01*
D02*
G37*
G36*
X51040Y140154D02*
X50259D01*
X49504Y139951D01*
X48827Y139560D01*
X48274Y139008D01*
X47883Y138331D01*
X47681Y137576D01*
Y136794D01*
X47883Y136039D01*
X48274Y135362D01*
X48827Y134810D01*
X49504Y134419D01*
X50259Y134216D01*
X51040D01*
X51795Y134419D01*
X52472Y134810D01*
X53025Y135362D01*
X53416Y136039D01*
X53618Y136794D01*
Y137576D01*
X53416Y138331D01*
X53025Y139008D01*
X52472Y139560D01*
X51795Y139951D01*
X51040Y140154D01*
D02*
G37*
G36*
X69689Y130902D02*
X69011D01*
X68357Y130726D01*
X67769Y130387D01*
X67382Y130000D01*
X66994Y130387D01*
X66407Y130726D01*
X65752Y130902D01*
X65074D01*
X64420Y130726D01*
X63832Y130387D01*
X63445Y130000D01*
X63057Y130387D01*
X62470Y130726D01*
X61815Y130902D01*
X61137D01*
X60483Y130726D01*
X59895Y130387D01*
X59508Y130000D01*
X59120Y130387D01*
X58533Y130726D01*
X57878Y130902D01*
X57200D01*
X56546Y130726D01*
X55958Y130387D01*
X55571Y130000D01*
X55183Y130387D01*
X54596Y130726D01*
X53941Y130902D01*
X53263D01*
X52609Y130726D01*
X52021Y130387D01*
X51634Y130000D01*
X51246Y130387D01*
X50659Y130726D01*
X50004Y130902D01*
X49326D01*
X48671Y130726D01*
X48084Y130387D01*
X47697Y130000D01*
X47309Y130387D01*
X46722Y130726D01*
X46067Y130902D01*
X45389D01*
X44734Y130726D01*
X44147Y130387D01*
X43668Y129908D01*
X43329Y129321D01*
X43154Y128666D01*
Y127988D01*
X43329Y127333D01*
X43668Y126746D01*
X44056Y126358D01*
X43668Y125971D01*
X43329Y125384D01*
X43154Y124729D01*
Y124051D01*
X43329Y123396D01*
X43668Y122809D01*
X44056Y122421D01*
X43668Y122034D01*
X43329Y121447D01*
X43154Y120792D01*
Y120114D01*
X43329Y119459D01*
X43668Y118872D01*
X44056Y118484D01*
X43668Y118097D01*
X43329Y117510D01*
X43154Y116855D01*
Y116177D01*
X43329Y115522D01*
X43668Y114935D01*
X44147Y114455D01*
X44734Y114116D01*
X45389Y113941D01*
X46067D01*
X46722Y114116D01*
X47309Y114455D01*
X47697Y114843D01*
X48084Y114455D01*
X48671Y114116D01*
X49326Y113941D01*
X50004D01*
X50659Y114116D01*
X51246Y114455D01*
X51634Y114843D01*
X52021Y114455D01*
X52609Y114116D01*
X53263Y113941D01*
X53941D01*
X54596Y114116D01*
X55183Y114455D01*
X55571Y114843D01*
X55958Y114455D01*
X56546Y114116D01*
X57200Y113941D01*
X57878D01*
X58533Y114116D01*
X59120Y114455D01*
X59508Y114843D01*
X59895Y114455D01*
X60483Y114116D01*
X61137Y113941D01*
X61815D01*
X62470Y114116D01*
X63057Y114455D01*
X63445Y114843D01*
X63832Y114455D01*
X64420Y114116D01*
X65074Y113941D01*
X65752D01*
X66407Y114116D01*
X66994Y114455D01*
X67382Y114843D01*
X67769Y114455D01*
X68357Y114116D01*
X69011Y113941D01*
X69689D01*
X70344Y114116D01*
X70931Y114455D01*
X71319Y114843D01*
X71706Y114455D01*
X72294Y114116D01*
X72948Y113941D01*
X73626D01*
X74281Y114116D01*
X74868Y114455D01*
X75348Y114935D01*
X75687Y115522D01*
X75862Y116177D01*
Y116855D01*
X75687Y117510D01*
X75348Y118097D01*
X74960Y118484D01*
X75348Y118872D01*
X75687Y119459D01*
X75862Y120114D01*
Y120792D01*
X75687Y121447D01*
X75348Y122034D01*
X74960Y122421D01*
X75348Y122809D01*
X75687Y123396D01*
X75862Y124051D01*
Y124729D01*
X75687Y125384D01*
X75348Y125971D01*
X74868Y126450D01*
X74281Y126789D01*
X73626Y126965D01*
X72948D01*
X72294Y126789D01*
X72219Y126746D01*
X71707Y127259D01*
X71750Y127333D01*
X71925Y127988D01*
Y128666D01*
X71750Y129321D01*
X71411Y129908D01*
X70931Y130387D01*
X70344Y130726D01*
X69689Y130902D01*
D02*
G37*
G36*
X95607Y130709D02*
X94929D01*
X94274Y130533D01*
X93687Y130194D01*
X93299Y129807D01*
X92912Y130194D01*
X92325Y130533D01*
X91670Y130709D01*
X90992D01*
X90337Y130533D01*
X89750Y130194D01*
X89362Y129807D01*
X88975Y130194D01*
X88388Y130533D01*
X87733Y130709D01*
X87055D01*
X86400Y130533D01*
X85813Y130194D01*
X85333Y129715D01*
X84994Y129128D01*
X84819Y128473D01*
Y127795D01*
X84994Y127140D01*
X85333Y126553D01*
X85721Y126165D01*
X85333Y125778D01*
X84994Y125191D01*
X84819Y124536D01*
Y123858D01*
X84994Y123203D01*
X85333Y122616D01*
X85813Y122136D01*
X86400Y121798D01*
X87055Y121622D01*
X87733D01*
X88388Y121798D01*
X88975Y122136D01*
X89362Y122524D01*
X89750Y122136D01*
X90337Y121798D01*
X90992Y121622D01*
X91670D01*
X92325Y121798D01*
X92912Y122136D01*
X93300Y122524D01*
X93687Y122137D01*
X94274Y121798D01*
X94929Y121623D01*
X95607D01*
X96262Y121798D01*
X96849Y122137D01*
X97328Y122617D01*
X97667Y123204D01*
X97843Y123859D01*
Y124537D01*
X97667Y125191D01*
X97328Y125779D01*
X96941Y126166D01*
X97328Y126553D01*
X97667Y127140D01*
X97843Y127795D01*
Y128473D01*
X97667Y129128D01*
X97328Y129715D01*
X96849Y130194D01*
X96262Y130533D01*
X95607Y130709D01*
D02*
G37*
G36*
X194418Y114189D02*
X194398D01*
Y110736D01*
X197850D01*
Y110757D01*
X197581Y111762D01*
X197061Y112663D01*
X196325Y113399D01*
X195423Y113920D01*
X194418Y114189D01*
D02*
G37*
G36*
X193398D02*
X193377D01*
X192372Y113920D01*
X191471Y113399D01*
X190735Y112663D01*
X190214Y111762D01*
X189945Y110757D01*
Y110736D01*
X193398D01*
Y114189D01*
D02*
G37*
G36*
X465942Y115173D02*
X465160D01*
X464405Y114971D01*
X463729Y114580D01*
X463176Y114027D01*
X462785Y113350D01*
X462583Y112595D01*
Y111814D01*
X462785Y111059D01*
X463176Y110382D01*
X463729Y109829D01*
X464405Y109439D01*
X465160Y109236D01*
X465942D01*
X466697Y109439D01*
X467374Y109829D01*
X467927Y110382D01*
X468317Y111059D01*
X468520Y111814D01*
Y112595D01*
X468317Y113350D01*
X467927Y114027D01*
X467374Y114580D01*
X466697Y114971D01*
X465942Y115173D01*
D02*
G37*
G36*
X197850Y109736D02*
X194398D01*
Y106283D01*
X194418D01*
X195423Y106553D01*
X196325Y107073D01*
X197061Y107809D01*
X197581Y108711D01*
X197850Y109716D01*
Y109736D01*
D02*
G37*
G36*
X193398D02*
X189945D01*
Y109716D01*
X190214Y108711D01*
X190735Y107809D01*
X191471Y107073D01*
X192372Y106553D01*
X193377Y106283D01*
X193398D01*
Y109736D01*
D02*
G37*
G36*
X229721Y102378D02*
X228940D01*
X228185Y102176D01*
X227508Y101785D01*
X226955Y101232D01*
X226565Y100555D01*
X226362Y99800D01*
Y99019D01*
X226565Y98264D01*
X226955Y97587D01*
X227508Y97034D01*
X228185Y96643D01*
X228940Y96441D01*
X229721D01*
X230476Y96643D01*
X231153Y97034D01*
X231706Y97587D01*
X232097Y98264D01*
X232299Y99019D01*
Y99800D01*
X232097Y100555D01*
X231706Y101232D01*
X231153Y101785D01*
X230476Y102176D01*
X229721Y102378D01*
D02*
G37*
G36*
X237044Y99681D02*
X236263D01*
X235508Y99479D01*
X234831Y99088D01*
X234278Y98535D01*
X233887Y97859D01*
X233685Y97104D01*
Y96322D01*
X233887Y95567D01*
X234278Y94890D01*
X234831Y94337D01*
X235508Y93946D01*
X236263Y93744D01*
X237044D01*
X237799Y93946D01*
X238476Y94337D01*
X239029Y94890D01*
X239420Y95567D01*
X239622Y96322D01*
Y97104D01*
X239420Y97859D01*
X239029Y98535D01*
X238476Y99088D01*
X237799Y99479D01*
X237044Y99681D01*
D02*
G37*
G36*
X198819Y249637D02*
X197894Y249515D01*
X197032Y249158D01*
X196292Y248590D01*
X195724Y247850D01*
X195367Y246988D01*
X195245Y246063D01*
Y215551D01*
X195367Y214626D01*
X195724Y213764D01*
X196292Y213024D01*
X202135Y207181D01*
Y97937D01*
X197058Y92860D01*
X196867Y93006D01*
X195910Y93403D01*
X194882Y93538D01*
X186664D01*
Y102362D01*
X186529Y103390D01*
X186132Y104348D01*
X185501Y105170D01*
X184678Y105801D01*
X183721Y106198D01*
X182693Y106333D01*
X180633D01*
X180513Y106559D01*
X180343Y107033D01*
X180838Y108227D01*
X181102Y109558D01*
Y110915D01*
X180838Y112246D01*
X180318Y113500D01*
X179564Y114628D01*
X178605Y115588D01*
X177476Y116342D01*
X176222Y116861D01*
X174891Y117126D01*
X173534D01*
X172203Y116861D01*
X170949Y116342D01*
X169821Y115588D01*
X168861Y114628D01*
X168107Y113500D01*
X167588Y112246D01*
X167323Y110915D01*
Y109558D01*
X167588Y108227D01*
X168082Y107033D01*
X167913Y106559D01*
X167792Y106333D01*
X161417D01*
X160390Y106198D01*
X159432Y105801D01*
X158609Y105170D01*
X157978Y104348D01*
X157582Y103390D01*
X157446Y102362D01*
Y76772D01*
X157582Y75744D01*
X157978Y74786D01*
X158609Y73964D01*
X159432Y73333D01*
X160390Y72936D01*
X161417Y72801D01*
X194882D01*
X195910Y72936D01*
X196867Y73333D01*
X197690Y73964D01*
X198321Y74786D01*
X198718Y75744D01*
X198853Y76772D01*
Y84669D01*
X199378Y85071D01*
X208236Y93930D01*
X208236Y93930D01*
X208804Y94670D01*
X209161Y95532D01*
X209282Y96457D01*
X209282Y96457D01*
Y208661D01*
X209161Y209586D01*
X208804Y210448D01*
X208236Y211189D01*
X202393Y217032D01*
Y246063D01*
X202271Y246988D01*
X201914Y247850D01*
X201346Y248590D01*
X200606Y249158D01*
X199744Y249515D01*
X198819Y249637D01*
D02*
G37*
G36*
X138962Y205709D02*
X137258D01*
X135575Y205442D01*
X133954Y204915D01*
X132436Y204142D01*
X131057Y203140D01*
X129852Y201935D01*
X128850Y200556D01*
X128077Y199038D01*
X127550Y197417D01*
X127284Y195734D01*
Y194030D01*
X127550Y192347D01*
X128077Y190726D01*
X128850Y189207D01*
X129852Y187829D01*
X131057Y186624D01*
X132436Y185622D01*
X133954Y184848D01*
X134139Y184788D01*
Y89558D01*
X117450Y72869D01*
X107283D01*
X106256Y72733D01*
X105298Y72337D01*
X104476Y71706D01*
X102893Y70123D01*
X102800Y70085D01*
X101978Y69454D01*
X99042Y66518D01*
X56945D01*
X55917Y66383D01*
X54959Y65986D01*
X54137Y65355D01*
X53506Y64533D01*
X53109Y63575D01*
X52974Y62547D01*
X53109Y61519D01*
X53506Y60562D01*
X54137Y59739D01*
X54959Y59108D01*
X55712Y58796D01*
X55573Y58096D01*
X50446D01*
X26712Y81830D01*
X26095Y82304D01*
X25377Y82601D01*
X24606Y82703D01*
X20267D01*
X19999Y82858D01*
X19143Y83087D01*
X18258D01*
X17403Y82858D01*
X16636Y82415D01*
X16010Y81789D01*
X15568Y81022D01*
X15339Y80167D01*
Y79282D01*
X15568Y78427D01*
X16010Y77660D01*
X16636Y77034D01*
X17403Y76591D01*
X18258Y76362D01*
X19143D01*
X19999Y76591D01*
X20267Y76746D01*
X23373D01*
X44899Y55220D01*
X44621Y54508D01*
X44007Y54343D01*
X43240Y53901D01*
X42614Y53275D01*
X42172Y52508D01*
X41943Y51653D01*
Y50768D01*
X42172Y49913D01*
X42614Y49146D01*
X43240Y48520D01*
X44007Y48077D01*
X44862Y47848D01*
X45748D01*
X46603Y48077D01*
X46871Y48232D01*
X93959D01*
X94385Y47677D01*
X94374Y47635D01*
Y46853D01*
X94384Y46815D01*
X93958Y46260D01*
X93819D01*
Y39391D01*
X93126Y39288D01*
X92384Y41080D01*
X91307Y42692D01*
X89936Y44063D01*
X88324Y45140D01*
X86532Y45882D01*
X84631Y46260D01*
X82692D01*
X80791Y45882D01*
X78999Y45140D01*
X77387Y44063D01*
X76016Y42692D01*
X74939Y41080D01*
X74197Y39288D01*
X73819Y37387D01*
Y35448D01*
X74197Y33546D01*
X74939Y31755D01*
X76016Y30143D01*
X77387Y28772D01*
X78999Y27695D01*
X80791Y26953D01*
X82692Y26575D01*
X84631D01*
X86532Y26953D01*
X88324Y27695D01*
X89936Y28772D01*
X91307Y30143D01*
X92384Y31755D01*
X93126Y33546D01*
X93819Y33443D01*
Y26575D01*
X113504D01*
Y46260D01*
X106640D01*
Y47310D01*
X112171Y52841D01*
X152662D01*
X152930Y52194D01*
X149784Y49048D01*
X149311Y48431D01*
X149013Y47713D01*
X148911Y46942D01*
Y45837D01*
X147228Y45140D01*
X145615Y44063D01*
X144245Y42692D01*
X143167Y41080D01*
X142426Y39288D01*
X142047Y37387D01*
Y35448D01*
X142426Y33546D01*
X143167Y31755D01*
X144245Y30143D01*
X145615Y28772D01*
X147228Y27695D01*
X149019Y26953D01*
X150920Y26575D01*
X152859D01*
X154761Y26953D01*
X156552Y27695D01*
X158164Y28772D01*
X159535Y30143D01*
X160612Y31755D01*
X161354Y33546D01*
X161533Y34446D01*
X162247D01*
X162425Y33546D01*
X163167Y31755D01*
X164245Y30143D01*
X165615Y28772D01*
X167228Y27695D01*
X169019Y26953D01*
X170920Y26575D01*
X172859D01*
X174761Y26953D01*
X176552Y27695D01*
X178164Y28772D01*
X179535Y30143D01*
X180612Y31755D01*
X181354Y33546D01*
X182047Y33443D01*
Y26575D01*
X201732D01*
Y46234D01*
X206693D01*
X207464Y46336D01*
X208182Y46633D01*
X208799Y47107D01*
X235374Y73681D01*
X235847Y74298D01*
X236144Y75017D01*
X236246Y75787D01*
X236144Y76558D01*
X235847Y77276D01*
X235374Y77893D01*
X234757Y78367D01*
X234038Y78664D01*
X233268Y78766D01*
X232497Y78664D01*
X231817Y78382D01*
X231437Y78878D01*
X230820Y79351D01*
X230101Y79648D01*
X229331Y79750D01*
X228560Y79648D01*
X228264Y79526D01*
X227973Y80229D01*
X227500Y80846D01*
X226883Y81319D01*
X226165Y81617D01*
X225394Y81718D01*
X224623Y81617D01*
X223943Y81335D01*
X223563Y81830D01*
X222946Y82304D01*
X222228Y82601D01*
X221457Y82703D01*
X220686Y82601D01*
X220006Y82319D01*
X219626Y82815D01*
X219009Y83288D01*
X218290Y83585D01*
X217520Y83687D01*
X216749Y83585D01*
X216031Y83288D01*
X215414Y82815D01*
X198570Y65970D01*
X122773D01*
X122483Y66670D01*
X140918Y85106D01*
X141549Y85928D01*
X141946Y86886D01*
X142081Y87913D01*
Y184788D01*
X142266Y184848D01*
X143785Y185622D01*
X145163Y186624D01*
X146368Y187829D01*
X147370Y189207D01*
X148144Y190726D01*
X148670Y192347D01*
X148937Y194030D01*
Y195734D01*
X148670Y197417D01*
X148144Y199038D01*
X147370Y200556D01*
X146368Y201935D01*
X145163Y203140D01*
X143785Y204142D01*
X142266Y204915D01*
X140646Y205442D01*
X138962Y205709D01*
D02*
G37*
G36*
X474763Y55413D02*
X473348D01*
X471959Y55137D01*
X470652Y54596D01*
X469475Y53809D01*
X469055Y53390D01*
X468635Y53809D01*
X467458Y54596D01*
X466151Y55137D01*
X464763Y55413D01*
X463347D01*
X461959Y55137D01*
X460652Y54596D01*
X459475Y53809D01*
X459055Y53390D01*
X458635Y53809D01*
X457458Y54596D01*
X456151Y55137D01*
X454763Y55413D01*
X453347D01*
X451959Y55137D01*
X450652Y54596D01*
X449475Y53809D01*
X449055Y53390D01*
X448635Y53809D01*
X447459Y54596D01*
X446151Y55137D01*
X444763Y55413D01*
X443348D01*
X441959Y55137D01*
X440652Y54596D01*
X439475Y53809D01*
X439055Y53390D01*
X438635Y53809D01*
X437459Y54596D01*
X436151Y55137D01*
X434763Y55413D01*
X433348D01*
X431959Y55137D01*
X430652Y54596D01*
X429475Y53809D01*
X428474Y52809D01*
X427688Y51632D01*
X427146Y50324D01*
X426870Y48936D01*
Y47521D01*
X427146Y46132D01*
X427688Y44825D01*
X428474Y43648D01*
X429475Y42647D01*
X430652Y41861D01*
X431959Y41319D01*
X433348Y41043D01*
X434763D01*
X436151Y41319D01*
X437459Y41861D01*
X438635Y42647D01*
X439055Y43067D01*
X439475Y42647D01*
X440652Y41861D01*
X441959Y41319D01*
X443348Y41043D01*
X444763D01*
X446151Y41319D01*
X447459Y41861D01*
X448635Y42647D01*
X449055Y43067D01*
X449475Y42647D01*
X450652Y41861D01*
X451959Y41319D01*
X453347Y41043D01*
X454763D01*
X456151Y41319D01*
X457458Y41861D01*
X458635Y42647D01*
X459055Y43067D01*
X459475Y42647D01*
X460652Y41861D01*
X461959Y41319D01*
X463347Y41043D01*
X464763D01*
X466151Y41319D01*
X467458Y41861D01*
X468635Y42647D01*
X469055Y43067D01*
X469475Y42647D01*
X470652Y41861D01*
X471959Y41319D01*
X473348Y41043D01*
X474763D01*
X476151Y41319D01*
X477458Y41861D01*
X478635Y42647D01*
X479636Y43648D01*
X480422Y44825D01*
X480483Y44970D01*
X481169Y45107D01*
X481447Y44829D01*
X482415Y44270D01*
X483496Y43980D01*
X483555D01*
Y48228D01*
Y52476D01*
X483496D01*
X482415Y52187D01*
X481447Y51628D01*
X481169Y51350D01*
X480483Y51486D01*
X480422Y51632D01*
X479636Y52809D01*
X478635Y53809D01*
X477458Y54596D01*
X476151Y55137D01*
X474763Y55413D01*
D02*
G37*
G36*
X501240D02*
X486870D01*
Y52317D01*
X486170Y51912D01*
X485695Y52187D01*
X484614Y52476D01*
X484555D01*
Y48228D01*
Y43980D01*
X484614D01*
X485695Y44270D01*
X486170Y44544D01*
X486870Y44140D01*
Y41043D01*
X501240D01*
Y55413D01*
D02*
G37*
G36*
X64341Y43323D02*
X64161D01*
Y36917D01*
X70567D01*
Y37097D01*
X70302Y38432D01*
X69781Y39688D01*
X69025Y40819D01*
X68063Y41781D01*
X66932Y42537D01*
X65676Y43058D01*
X64341Y43323D01*
D02*
G37*
G36*
X132570D02*
X132390D01*
Y36917D01*
X138795D01*
Y37097D01*
X138530Y38432D01*
X138009Y39688D01*
X137254Y40819D01*
X136292Y41781D01*
X135161Y42537D01*
X133904Y43058D01*
X132570Y43323D01*
D02*
G37*
G36*
X131390D02*
X131210D01*
X129876Y43058D01*
X128619Y42537D01*
X127488Y41781D01*
X126526Y40819D01*
X125770Y39688D01*
X125250Y38432D01*
X124984Y37097D01*
Y36917D01*
X131390D01*
Y43323D01*
D02*
G37*
G36*
X63161D02*
X62981D01*
X61647Y43058D01*
X60390Y42537D01*
X59259Y41781D01*
X58298Y40819D01*
X57542Y39688D01*
X57021Y38432D01*
X56756Y37097D01*
Y36917D01*
X63161D01*
Y43323D01*
D02*
G37*
G36*
X359252Y61058D02*
X337598D01*
X336571Y60922D01*
X335613Y60526D01*
X334790Y59895D01*
X334159Y59072D01*
X333763Y58114D01*
X333627Y57087D01*
Y39370D01*
X333763Y38342D01*
X334159Y37385D01*
X334790Y36562D01*
X335613Y35931D01*
X336571Y35534D01*
X337598Y35399D01*
X359252D01*
X360280Y35534D01*
X361238Y35931D01*
X362060Y36562D01*
X362691Y37385D01*
X363088Y38342D01*
X363223Y39370D01*
Y57087D01*
X363088Y58114D01*
X362691Y59072D01*
X362060Y59895D01*
X361238Y60526D01*
X360280Y60922D01*
X359252Y61058D01*
D02*
G37*
G36*
X138795Y35917D02*
X132390D01*
Y29512D01*
X132570D01*
X133904Y29777D01*
X135161Y30298D01*
X136292Y31054D01*
X137254Y32015D01*
X138009Y33146D01*
X138530Y34403D01*
X138795Y35737D01*
Y35917D01*
D02*
G37*
G36*
X131390D02*
X124984D01*
Y35737D01*
X125250Y34403D01*
X125770Y33146D01*
X126526Y32015D01*
X127488Y31054D01*
X128619Y30298D01*
X129876Y29777D01*
X131210Y29512D01*
X131390D01*
Y35917D01*
D02*
G37*
G36*
X70567D02*
X64161D01*
Y29512D01*
X64341D01*
X65676Y29777D01*
X66932Y30298D01*
X68063Y31054D01*
X69025Y32015D01*
X69781Y33146D01*
X70302Y34403D01*
X70567Y35737D01*
Y35917D01*
D02*
G37*
G36*
X63161D02*
X56756D01*
Y35737D01*
X57021Y34403D01*
X57542Y33146D01*
X58298Y32015D01*
X59259Y31054D01*
X60390Y30298D01*
X61647Y29777D01*
X62981Y29512D01*
X63161D01*
Y35917D01*
D02*
G37*
G36*
X47762Y15748D02*
X46726D01*
X45724Y15480D01*
X44827Y14961D01*
X44094Y14228D01*
X43575Y13331D01*
X43307Y12329D01*
Y11293D01*
X43575Y10291D01*
X44094Y9394D01*
X44827Y8661D01*
X45724Y8142D01*
X46726Y7874D01*
X47762D01*
X48764Y8142D01*
X49661Y8661D01*
X50394Y9394D01*
X50913Y10291D01*
X51181Y11293D01*
Y12329D01*
X50913Y13331D01*
X50394Y14228D01*
X49661Y14961D01*
X48764Y15480D01*
X47762Y15748D01*
D02*
G37*
%LPD*%
G36*
X169291Y300197D02*
X126766D01*
X126578Y300897D01*
X127047Y301167D01*
X127966Y302087D01*
X128616Y303212D01*
X128953Y304468D01*
Y304618D01*
X124016D01*
X119079D01*
Y304468D01*
X119415Y303212D01*
X120065Y302087D01*
X120984Y301167D01*
X121453Y300897D01*
X121266Y300197D01*
X114955D01*
X114767Y300897D01*
X115236Y301167D01*
X116155Y302087D01*
X116805Y303212D01*
X117142Y304468D01*
Y304618D01*
X112205D01*
X107268D01*
Y304468D01*
X107604Y303212D01*
X108254Y302087D01*
X109173Y301167D01*
X109642Y300897D01*
X109455Y300197D01*
X104331D01*
Y310039D01*
X109455D01*
X109642Y309339D01*
X109173Y309069D01*
X108254Y308150D01*
X107604Y307024D01*
X107268Y305768D01*
Y305618D01*
X112205D01*
X117142D01*
Y305768D01*
X116805Y307024D01*
X116155Y308150D01*
X115236Y309069D01*
X114767Y309339D01*
X114955Y310039D01*
X116142D01*
Y309842D01*
X120925D01*
X121112Y309142D01*
X120984Y309069D01*
X120065Y308150D01*
X119415Y307024D01*
X119079Y305768D01*
Y305618D01*
X124016D01*
X128953D01*
Y305768D01*
X128616Y307024D01*
X127966Y308150D01*
X127047Y309069D01*
X126919Y309142D01*
X127107Y309842D01*
X131890D01*
Y310039D01*
X138779Y316929D01*
X169291D01*
Y300197D01*
D02*
G37*
%LPC*%
G36*
X158501Y313492D02*
X158480D01*
Y310039D01*
X161933D01*
Y310060D01*
X161664Y311065D01*
X161143Y311966D01*
X160407Y312702D01*
X159506Y313223D01*
X158501Y313492D01*
D02*
G37*
G36*
X157480D02*
X157460D01*
X156455Y313223D01*
X155553Y312702D01*
X154817Y311966D01*
X154297Y311065D01*
X154028Y310060D01*
Y310039D01*
X157480D01*
Y313492D01*
D02*
G37*
G36*
X161933Y309039D02*
X158480D01*
Y305587D01*
X158501D01*
X159506Y305856D01*
X160407Y306376D01*
X161143Y307112D01*
X161664Y308014D01*
X161933Y309019D01*
Y309039D01*
D02*
G37*
G36*
X157480D02*
X154028D01*
Y309019D01*
X154297Y308014D01*
X154817Y307112D01*
X155553Y306376D01*
X156455Y305856D01*
X157460Y305587D01*
X157480D01*
Y309039D01*
D02*
G37*
%LPD*%
G36*
X294617Y246441D02*
X262189D01*
Y266732D01*
X294617D01*
Y246441D01*
D02*
G37*
G36*
X250000Y216535D02*
X224410D01*
Y253937D01*
X250000D01*
Y216535D01*
D02*
G37*
G36*
X182693Y89567D02*
X194882D01*
Y76772D01*
X161417D01*
Y102362D01*
X182693D01*
Y89567D01*
D02*
G37*
G36*
X359252Y39370D02*
X337598D01*
Y57087D01*
X359252D01*
Y39370D01*
D02*
G37*
D27*
X47244Y11811D02*
D03*
X527559Y259842D02*
D03*
X11811Y220472D02*
D03*
X244094Y316122D02*
D03*
X236653Y96713D02*
D03*
X229331Y99410D02*
D03*
X227613Y121502D02*
D03*
X234637Y121293D02*
D03*
X231299Y269685D02*
D03*
X97342Y47244D02*
D03*
X178307D02*
D03*
X158031D02*
D03*
X340551Y54134D02*
D03*
X344488D02*
D03*
X348425D02*
D03*
X352362D02*
D03*
X356299D02*
D03*
X340551Y50197D02*
D03*
X344488D02*
D03*
X348425D02*
D03*
X352362D02*
D03*
X356299D02*
D03*
X340551Y46260D02*
D03*
X344488D02*
D03*
X348425D02*
D03*
X352362D02*
D03*
X356299D02*
D03*
Y42323D02*
D03*
X352362D02*
D03*
X348425D02*
D03*
X344488D02*
D03*
X340551D02*
D03*
X300197Y247047D02*
D03*
X320866Y243110D02*
D03*
X510827Y192547D02*
D03*
Y215598D02*
D03*
X486221Y110236D02*
D03*
X408465Y171260D02*
D03*
X413386Y166339D02*
D03*
X421260Y155512D02*
D03*
X496673Y144685D02*
D03*
X452756Y165354D02*
D03*
X476318Y147074D02*
D03*
X463522D02*
D03*
X442913Y143701D02*
D03*
X465551Y112205D02*
D03*
X74272Y156870D02*
D03*
X48926Y157854D02*
D03*
X79193Y170650D02*
D03*
X50650Y137185D02*
D03*
X48926Y144075D02*
D03*
X65413Y150965D02*
D03*
D135*
X151890Y36417D02*
Y46942D01*
X157113Y52165D02*
X204724D01*
X151890Y46942D02*
X157113Y52165D01*
X179960Y49213D02*
X206693D01*
X179944Y49228D02*
X179960Y49213D01*
X171890Y36417D02*
Y45927D01*
X175175Y49213D01*
X176654D02*
X176670Y49228D01*
X175175Y49213D02*
X176654D01*
X176670Y49228D02*
X179944D01*
X510827Y192547D02*
Y207677D01*
X366142Y212598D02*
X505905D01*
X510827Y207677D01*
X364173Y210630D02*
X366142Y212598D01*
X366094Y215598D02*
X510827D01*
X364173Y217520D02*
X366094Y215598D01*
X389764Y251969D02*
Y262795D01*
X362205Y224410D02*
X389764Y251969D01*
X417323Y176181D02*
X490158D01*
X412402Y171260D02*
X417323Y176181D01*
X408465Y171260D02*
X412402D01*
X490158Y176181D02*
X508602Y157736D01*
X489173Y172244D02*
X507874Y153543D01*
X419291Y172244D02*
X489173D01*
X413386Y166339D02*
X419291Y172244D01*
X49213Y55118D02*
X98425D01*
X18701Y79724D02*
X24606D01*
X49213Y55118D01*
X199803Y62992D02*
X217520Y80709D01*
X206693Y49213D02*
X233268Y75787D01*
X98425Y55118D02*
X106299Y62992D01*
X153543D01*
X100423Y51210D02*
X108268Y59055D01*
X45305Y51210D02*
X100423D01*
X108268Y59055D02*
X154528D01*
X103661Y48543D02*
X110937Y55819D01*
X103661Y36417D02*
Y48543D01*
X110937Y55819D02*
X156375D01*
X154528Y59055D02*
X200787D01*
X221457Y79724D01*
X153543Y62992D02*
X199803D01*
X204724Y52165D02*
X229331Y76772D01*
X202472Y55819D02*
X225394Y78740D01*
X156375Y55819D02*
X202472D01*
D136*
X65413Y173681D02*
X86614Y194882D01*
X98110D01*
X191929Y87598D02*
X196850D01*
X205709Y96457D02*
Y208661D01*
X196850Y87598D02*
X205709Y96457D01*
X256890Y232409D02*
Y272638D01*
Y232409D02*
X263931Y225368D01*
X289246D01*
X256890Y272638D02*
X263600Y279348D01*
X274267D01*
X471457Y165354D02*
X486221Y150591D01*
Y110236D02*
Y150591D01*
X452756Y165354D02*
X471457D01*
X180118Y87598D02*
X184055D01*
X187992D01*
Y87598D02*
X191929D01*
X65413Y150965D02*
Y173681D01*
X198819Y215551D02*
X205709Y208661D01*
X198819Y215551D02*
Y246063D01*
X312617Y289470D02*
X326611Y303465D01*
D138*
X219488Y148622D02*
Y257874D01*
X234637Y121293D02*
Y133473D01*
X219488Y148622D02*
X234637Y133473D01*
X219488Y257874D02*
X231299Y269685D01*
X243681D02*
X244094Y270098D01*
X105032Y66646D02*
X107283Y68898D01*
X100687Y62547D02*
X104786Y66646D01*
X107283Y68898D02*
X119095D01*
X56945Y62547D02*
X100687D01*
X104786Y66646D02*
X105032D01*
X138110Y87913D02*
Y198556D01*
X119095Y68898D02*
X138110Y87913D01*
X32480Y113189D02*
Y225394D01*
X45578Y94717D02*
Y100092D01*
X32480Y113189D02*
X45578Y100092D01*
X52362Y245276D02*
Y298031D01*
X32480Y225394D02*
X52362Y245276D01*
D142*
X244094Y286634D02*
D03*
D143*
X174213Y110236D02*
D03*
X193898D02*
D03*
X157980Y329224D02*
D03*
Y309539D02*
D03*
X16732Y252953D02*
D03*
X36417D02*
D03*
X229331Y165354D02*
D03*
Y175354D02*
D03*
Y185354D02*
D03*
Y195354D02*
D03*
Y205354D02*
D03*
D144*
X484055Y48228D02*
D03*
X474055D02*
D03*
X464055D02*
D03*
X454055D02*
D03*
X444055D02*
D03*
X434055D02*
D03*
D145*
X494055D02*
D03*
D146*
X191890Y36417D02*
D03*
X103661D02*
D03*
D147*
X171890D02*
D03*
X151890D02*
D03*
X131890D02*
D03*
X83661D02*
D03*
X63661D02*
D03*
D148*
X229331Y155354D02*
D03*
D149*
X138110Y194882D02*
D03*
X118110D02*
D03*
X98110D02*
D03*
D150*
X70866Y285433D02*
D03*
Y309842D02*
D03*
D151*
X52362Y298031D02*
D03*
D152*
X104724Y328346D02*
D03*
X131496Y281890D02*
D03*
X112205Y292520D02*
D03*
Y305118D02*
D03*
Y317717D02*
D03*
X124016Y292520D02*
D03*
Y305118D02*
D03*
D153*
Y317717D02*
D03*
D154*
X289246Y225368D02*
D03*
X274267Y279348D02*
D03*
X184055Y79724D02*
D03*
X187992D02*
D03*
X191929D02*
D03*
X184055Y83661D02*
D03*
X187992D02*
D03*
X191929D02*
D03*
X184055Y87598D02*
D03*
X187992D02*
D03*
X191929D02*
D03*
X164370Y79724D02*
D03*
X168307D02*
D03*
X172244D02*
D03*
X176181D02*
D03*
X180118D02*
D03*
X164370Y83661D02*
D03*
X168307D02*
D03*
X172244D02*
D03*
X176181D02*
D03*
X180118D02*
D03*
X168307Y95472D02*
D03*
X180118D02*
D03*
Y91535D02*
D03*
X172244D02*
D03*
X168307Y99410D02*
D03*
X164370Y91535D02*
D03*
X172244Y99410D02*
D03*
Y95472D02*
D03*
X180118Y99410D02*
D03*
X164370Y95472D02*
D03*
X176181Y99410D02*
D03*
Y95472D02*
D03*
Y91535D02*
D03*
X168307D02*
D03*
X164370Y99410D02*
D03*
X198819Y246063D02*
D03*
X247047Y250984D02*
D03*
X243110D02*
D03*
X235236D02*
D03*
X231299D02*
D03*
X239173D02*
D03*
X227362D02*
D03*
X247047Y247047D02*
D03*
X243110D02*
D03*
X235236D02*
D03*
X231299D02*
D03*
X239173D02*
D03*
X227362D02*
D03*
X239173Y243110D02*
D03*
X235236D02*
D03*
X227362D02*
D03*
X231299D02*
D03*
X239173Y239173D02*
D03*
X235236D02*
D03*
X227362D02*
D03*
X231299D02*
D03*
X239173Y235236D02*
D03*
X235236D02*
D03*
X227362D02*
D03*
X231299D02*
D03*
X239173Y231299D02*
D03*
X235236D02*
D03*
X227362D02*
D03*
X231299D02*
D03*
X247047Y227362D02*
D03*
X243110D02*
D03*
X235236D02*
D03*
X231299D02*
D03*
X239173D02*
D03*
X227362D02*
D03*
X247047Y223425D02*
D03*
X243110D02*
D03*
X235236D02*
D03*
X231299D02*
D03*
X239173D02*
D03*
X227362D02*
D03*
Y219488D02*
D03*
X239173D02*
D03*
X231299D02*
D03*
X235236D02*
D03*
X243110D02*
D03*
X247047D02*
D03*
X264764Y264764D02*
D03*
Y260827D02*
D03*
Y256890D02*
D03*
Y252953D02*
D03*
Y249016D02*
D03*
X268701Y264764D02*
D03*
Y260827D02*
D03*
Y256890D02*
D03*
Y252953D02*
D03*
Y249016D02*
D03*
X292323D02*
D03*
X288386D02*
D03*
X284449D02*
D03*
X280512D02*
D03*
X276575D02*
D03*
X272638D02*
D03*
X478440Y123359D02*
D03*
X272638Y260827D02*
D03*
Y256890D02*
D03*
Y252953D02*
D03*
X276575Y260827D02*
D03*
Y256890D02*
D03*
Y252953D02*
D03*
X280512Y264764D02*
D03*
Y260827D02*
D03*
Y256890D02*
D03*
Y252953D02*
D03*
X284449Y264764D02*
D03*
Y260827D02*
D03*
Y256890D02*
D03*
Y252953D02*
D03*
X288386Y264764D02*
D03*
Y260827D02*
D03*
Y256890D02*
D03*
Y252953D02*
D03*
X292323D02*
D03*
Y256890D02*
D03*
Y260827D02*
D03*
Y264764D02*
D03*
X326611Y303465D02*
D03*
X312617Y289470D02*
D03*
X164370Y87598D02*
D03*
X168307D02*
D03*
X172244D02*
D03*
X176181D02*
D03*
X180118D02*
D03*
X26575Y212598D02*
D03*
X45728Y124390D02*
D03*
Y128327D02*
D03*
Y120453D02*
D03*
Y116516D02*
D03*
X49665Y124390D02*
D03*
Y128327D02*
D03*
Y120453D02*
D03*
Y116516D02*
D03*
X53602Y124390D02*
D03*
Y128327D02*
D03*
Y120453D02*
D03*
Y116516D02*
D03*
X57539Y124390D02*
D03*
Y128327D02*
D03*
Y120453D02*
D03*
Y116516D02*
D03*
X73287D02*
D03*
Y120453D02*
D03*
Y124390D02*
D03*
X69350Y116516D02*
D03*
X65413D02*
D03*
X61476D02*
D03*
Y120453D02*
D03*
X65413D02*
D03*
X69350D02*
D03*
X61476Y128327D02*
D03*
Y124390D02*
D03*
X69350D02*
D03*
Y128327D02*
D03*
X65413Y124390D02*
D03*
Y128327D02*
D03*
X95268Y128134D02*
D03*
X87394Y124197D02*
D03*
X91331D02*
D03*
X95268Y124198D02*
D03*
X91331Y128134D02*
D03*
X87394D02*
D03*
D155*
X362205Y224410D02*
D03*
X364173Y210630D02*
D03*
Y217520D02*
D03*
X389764Y262795D02*
D03*
X80374Y135020D02*
D03*
Y139350D02*
D03*
X76043D02*
D03*
Y135020D02*
D03*
D156*
X410370Y300206D02*
D03*
X413243Y299345D02*
D03*
X416154Y300070D02*
D03*
X418325Y302141D02*
D03*
D157*
X56945Y62547D02*
D03*
X45305Y51210D02*
D03*
X18701Y79724D02*
D03*
X45578Y94717D02*
D03*
M02*
