G04*
G04 #@! TF.GenerationSoftware,Altium Limited,Altium Designer,24.5.2 (23)*
G04*
G04 Layer_Physical_Order=2*
G04 Layer_Color=6736896*
%FSLAX25Y25*%
%MOIN*%
G70*
G04*
G04 #@! TF.SameCoordinates,54B51B4C-3849-4939-8346-CF3DF989E6B0*
G04*
G04*
G04 #@! TF.FilePolarity,Positive*
G04*
G01*
G75*
%ADD27C,0.03937*%
%ADD142C,0.05118*%
%ADD143C,0.05906*%
%ADD144C,0.06496*%
%ADD145R,0.06496X0.06496*%
%ADD146R,0.11811X0.11811*%
%ADD147C,0.11811*%
%ADD148R,0.05906X0.05906*%
%ADD149C,0.13780*%
%ADD150R,0.19685X0.07874*%
%ADD151R,0.07874X0.19685*%
%ADD152C,0.07874*%
%ADD153R,0.07874X0.07874*%
%ADD154C,0.03150*%
%ADD155C,0.02756*%
%ADD156C,0.02000*%
%ADD157C,0.04724*%
G36*
X39370Y340312D02*
X499315D01*
X499300D01*
X499315Y340312D01*
X500000Y340312D01*
X500657Y340207D01*
X500672Y340204D01*
X501241Y339824D01*
X501622Y339254D01*
X501625Y339239D01*
X501729Y338583D01*
X501741Y338523D01*
X501741Y337883D01*
X501743Y308057D01*
X501756Y307988D01*
X501736Y307571D01*
X501920Y303834D01*
X502469Y300132D01*
X503378Y296502D01*
X504638Y292979D01*
X506238Y289597D01*
X508162Y286387D01*
X510391Y283381D01*
X512904Y280609D01*
X515677Y278096D01*
X518682Y275867D01*
X521892Y273943D01*
X525275Y272343D01*
X528798Y271082D01*
X532428Y270173D01*
X536129Y269624D01*
X537162Y269573D01*
Y181735D01*
X533465D01*
X533465Y181735D01*
Y181735D01*
X533380Y181719D01*
X531827Y181596D01*
X530231Y181213D01*
X528713Y180585D01*
X527313Y179727D01*
X526064Y178660D01*
X524998Y177411D01*
X524140Y176011D01*
X523511Y174494D01*
X523128Y172897D01*
X522999Y171260D01*
X523128Y169623D01*
X523511Y168026D01*
X524140Y166509D01*
X524998Y165109D01*
X526064Y163860D01*
X527313Y162793D01*
X528713Y161935D01*
X530231Y161307D01*
X531827Y160923D01*
X533380Y160801D01*
X533465Y160784D01*
X537162D01*
Y72948D01*
X536130Y72897D01*
X532429Y72348D01*
X528798Y71439D01*
X525275Y70178D01*
X521892Y68578D01*
X518682Y66654D01*
X515676Y64425D01*
X512903Y61912D01*
X510390Y59139D01*
X508161Y56133D01*
X506237Y52923D01*
X504637Y49540D01*
X503376Y46016D01*
X502467Y42386D01*
X501918Y38685D01*
X501734Y34947D01*
X501755Y34530D01*
X501741Y34461D01*
Y3996D01*
X501729Y3937D01*
X501729D01*
X501625Y3280D01*
X501622Y3265D01*
X501241Y2696D01*
X500672Y2315D01*
X500066Y2195D01*
X500000Y2208D01*
X39370D01*
X39304Y2195D01*
X38698Y2315D01*
X38129Y2696D01*
X37748Y3265D01*
X37745Y3280D01*
X37641Y3937D01*
X37641D01*
X37629Y3996D01*
Y34461D01*
X37615Y34530D01*
X37636Y34947D01*
X37452Y38685D01*
X36903Y42386D01*
X35994Y46016D01*
X34733Y49540D01*
X33133Y52923D01*
X31209Y56133D01*
X28980Y59139D01*
X26467Y61912D01*
X23694Y64425D01*
X20688Y66654D01*
X17478Y68578D01*
X14095Y70178D01*
X10572Y71439D01*
X6942Y72348D01*
X3240Y72897D01*
X2208Y72948D01*
Y160784D01*
X5906D01*
X5906Y160784D01*
Y160784D01*
X5990Y160801D01*
X7543Y160923D01*
X9139Y161307D01*
X10657Y161935D01*
X12057Y162793D01*
X13306Y163860D01*
X14372Y165109D01*
X15230Y166509D01*
X15859Y168026D01*
X16242Y169623D01*
X16371Y171260D01*
X16242Y172897D01*
X15859Y174494D01*
X15230Y176011D01*
X14372Y177411D01*
X13306Y178660D01*
X12057Y179727D01*
X10657Y180585D01*
X9139Y181213D01*
X7543Y181596D01*
X5990Y181719D01*
X5906Y181735D01*
X2196D01*
Y269571D01*
X3240Y269623D01*
X6942Y270172D01*
X10572Y271081D01*
X14095Y272342D01*
X17478Y273942D01*
X20688Y275866D01*
X23694Y278095D01*
X26467Y280608D01*
X28980Y283381D01*
X31209Y286387D01*
X33133Y289597D01*
X34733Y292980D01*
X35994Y296503D01*
X36903Y300133D01*
X37452Y303835D01*
X37636Y307573D01*
X37615Y307990D01*
X37629Y308059D01*
Y338523D01*
X37641Y338583D01*
X37641D01*
X37745Y339239D01*
X37748Y339254D01*
X38129Y339824D01*
X38698Y340205D01*
X39304Y340325D01*
X39370Y340312D01*
D02*
G37*
%LPC*%
G36*
X158501Y333177D02*
X158480D01*
Y329724D01*
X161933D01*
Y329745D01*
X161664Y330750D01*
X161143Y331651D01*
X160407Y332387D01*
X159506Y332908D01*
X158501Y333177D01*
D02*
G37*
G36*
X157480D02*
X157460D01*
X156455Y332908D01*
X155553Y332387D01*
X154817Y331651D01*
X154297Y330750D01*
X154028Y329745D01*
Y329724D01*
X157480D01*
Y333177D01*
D02*
G37*
G36*
X105374Y333283D02*
X105225D01*
Y328846D01*
X109661D01*
Y328996D01*
X109325Y330252D01*
X108675Y331378D01*
X107756Y332297D01*
X106630Y332947D01*
X105374Y333283D01*
D02*
G37*
G36*
X104225D02*
X104074D01*
X102819Y332947D01*
X101693Y332297D01*
X100774Y331378D01*
X100124Y330252D01*
X99787Y328996D01*
Y328846D01*
X104225D01*
Y333283D01*
D02*
G37*
G36*
X161933Y328724D02*
X158480D01*
Y325272D01*
X158501D01*
X159506Y325541D01*
X160407Y326061D01*
X161143Y326797D01*
X161664Y327699D01*
X161933Y328704D01*
Y328724D01*
D02*
G37*
G36*
X157480D02*
X154028D01*
Y328704D01*
X154297Y327699D01*
X154817Y326797D01*
X155553Y326061D01*
X156455Y325541D01*
X157460Y325272D01*
X157480D01*
Y328724D01*
D02*
G37*
G36*
X104225Y327846D02*
X99787D01*
Y327696D01*
X100124Y326441D01*
X100774Y325315D01*
X101693Y324396D01*
X102819Y323746D01*
X104074Y323409D01*
X104225D01*
Y327846D01*
D02*
G37*
G36*
X244485Y319091D02*
X243704D01*
X242949Y318888D01*
X242272Y318497D01*
X241719Y317945D01*
X241328Y317268D01*
X241126Y316513D01*
Y315731D01*
X241328Y314976D01*
X241719Y314299D01*
X242272Y313747D01*
X242949Y313356D01*
X243704Y313154D01*
X244485D01*
X245240Y313356D01*
X245917Y313747D01*
X246470Y314299D01*
X246861Y314976D01*
X247063Y315731D01*
Y316513D01*
X246861Y317268D01*
X246470Y317945D01*
X245917Y318497D01*
X245240Y318888D01*
X244485Y319091D01*
D02*
G37*
G36*
X81709Y314779D02*
X71366D01*
Y310343D01*
X81709D01*
Y314779D01*
D02*
G37*
G36*
Y309343D02*
X71366D01*
Y304906D01*
X81709D01*
Y309343D01*
D02*
G37*
G36*
X158659Y316429D02*
X157302D01*
X155971Y316164D01*
X154717Y315645D01*
X153588Y314891D01*
X152629Y313931D01*
X151875Y312803D01*
X151355Y311549D01*
X151091Y310218D01*
Y308861D01*
X151355Y307530D01*
X151875Y306276D01*
X152629Y305147D01*
X153588Y304188D01*
X154717Y303434D01*
X155971Y302914D01*
X157302Y302650D01*
X158659D01*
X159990Y302914D01*
X161244Y303434D01*
X162372Y304188D01*
X163332Y305147D01*
X164086Y306276D01*
X164605Y307530D01*
X164870Y308861D01*
Y310218D01*
X164605Y311549D01*
X164086Y312803D01*
X163332Y313931D01*
X162372Y314891D01*
X161244Y315645D01*
X159990Y316164D01*
X158659Y316429D01*
D02*
G37*
G36*
X326951Y306039D02*
X326273D01*
X325618Y305864D01*
X325030Y305525D01*
X324551Y305046D01*
X324212Y304458D01*
X324037Y303803D01*
Y303126D01*
X324212Y302471D01*
X324551Y301884D01*
X325030Y301404D01*
X325618Y301065D01*
X326273Y300890D01*
X326951D01*
X327605Y301065D01*
X328192Y301404D01*
X328672Y301884D01*
X329011Y302471D01*
X329186Y303126D01*
Y303803D01*
X329011Y304458D01*
X328672Y305046D01*
X328192Y305525D01*
X327605Y305864D01*
X326951Y306039D01*
D02*
G37*
G36*
X312956Y292045D02*
X312278D01*
X311623Y291869D01*
X311036Y291530D01*
X310557Y291051D01*
X310217Y290464D01*
X310042Y289809D01*
Y289131D01*
X310217Y288476D01*
X310557Y287889D01*
X311036Y287410D01*
X311623Y287071D01*
X312278Y286895D01*
X312956D01*
X313611Y287071D01*
X314198Y287410D01*
X314677Y287889D01*
X315016Y288476D01*
X315192Y289131D01*
Y289809D01*
X315016Y290464D01*
X314677Y291051D01*
X314198Y291530D01*
X313611Y291869D01*
X312956Y292045D01*
D02*
G37*
G36*
X244563Y290193D02*
X243626D01*
X242721Y289950D01*
X241909Y289482D01*
X241247Y288819D01*
X240778Y288008D01*
X240535Y287102D01*
Y286165D01*
X240778Y285260D01*
X241247Y284449D01*
X241909Y283786D01*
X242721Y283317D01*
X243626Y283075D01*
X244563D01*
X245468Y283317D01*
X246280Y283786D01*
X246942Y284449D01*
X247411Y285260D01*
X247654Y286165D01*
Y287102D01*
X247411Y288008D01*
X246942Y288819D01*
X246280Y289482D01*
X245468Y289950D01*
X244563Y290193D01*
D02*
G37*
G36*
X132146Y286827D02*
X131996D01*
Y282390D01*
X136433D01*
Y282540D01*
X136097Y283795D01*
X135447Y284921D01*
X134527Y285840D01*
X133402Y286490D01*
X132146Y286827D01*
D02*
G37*
G36*
X109661Y327846D02*
X105225D01*
Y323409D01*
X105374D01*
X105918Y323555D01*
X106280Y322927D01*
X106089Y322736D01*
X105227Y321446D01*
X104633Y320013D01*
X104331Y318492D01*
Y316941D01*
X104633Y315420D01*
X105227Y313987D01*
X106089Y312697D01*
X106900Y311886D01*
X107105Y311417D01*
X106900Y310949D01*
X106089Y310138D01*
X105227Y308848D01*
X104633Y307415D01*
X104331Y305894D01*
Y304343D01*
X104633Y302821D01*
X105227Y301388D01*
X106089Y300099D01*
X106900Y299287D01*
X107105Y298819D01*
X106900Y298351D01*
X106089Y297539D01*
X105227Y296249D01*
X104633Y294816D01*
X104331Y293295D01*
Y291744D01*
X104633Y290223D01*
X105227Y288790D01*
X106089Y287500D01*
X107185Y286403D01*
X108475Y285542D01*
X109908Y284948D01*
X111429Y284646D01*
X112980D01*
X114502Y284948D01*
X115935Y285542D01*
X117224Y286403D01*
X118110Y287290D01*
X118996Y286403D01*
X120286Y285542D01*
X121719Y284948D01*
X123240Y284646D01*
X124791D01*
X126312Y284948D01*
X126891Y285188D01*
X127379Y284632D01*
X126895Y283795D01*
X126559Y282540D01*
Y282390D01*
X130996D01*
Y286827D01*
X130846D01*
X130303Y286681D01*
X129940Y287309D01*
X130132Y287500D01*
X130994Y288790D01*
X131587Y290223D01*
X131890Y291744D01*
Y293295D01*
X131587Y294816D01*
X130994Y296249D01*
X130132Y297539D01*
X129320Y298351D01*
X129115Y298819D01*
X129320Y299287D01*
X130132Y300099D01*
X130994Y301388D01*
X131587Y302821D01*
X131890Y304343D01*
Y305894D01*
X131587Y307415D01*
X130994Y308848D01*
X130742Y309225D01*
X131071Y309842D01*
X131890D01*
Y325590D01*
X116142D01*
Y325366D01*
X115442Y324899D01*
X114502Y325288D01*
X112980Y325590D01*
X111429D01*
X109908Y325288D01*
X109329Y325048D01*
X108842Y325604D01*
X109325Y326441D01*
X109661Y327696D01*
Y327846D01*
D02*
G37*
G36*
X70366Y314779D02*
X60024D01*
Y311811D01*
X44488D01*
Y284252D01*
X57087D01*
Y277559D01*
X84646D01*
Y293307D01*
X60236D01*
Y304906D01*
X70366D01*
Y309842D01*
Y314779D01*
D02*
G37*
G36*
X136433Y281390D02*
X131996D01*
Y276953D01*
X132146D01*
X133402Y277289D01*
X134527Y277939D01*
X135447Y278858D01*
X136097Y279984D01*
X136433Y281240D01*
Y281390D01*
D02*
G37*
G36*
X130996D02*
X126559D01*
Y281240D01*
X126895Y279984D01*
X127545Y278858D01*
X128465Y277939D01*
X129590Y277289D01*
X130846Y276953D01*
X130996D01*
Y281390D01*
D02*
G37*
G36*
X274605Y281923D02*
X273928D01*
X273273Y281748D01*
X272686Y281409D01*
X272206Y280929D01*
X271867Y280342D01*
X271692Y279687D01*
Y279009D01*
X271867Y278354D01*
X272206Y277767D01*
X272686Y277288D01*
X273273Y276949D01*
X273928Y276774D01*
X274605D01*
X275260Y276949D01*
X275848Y277288D01*
X276327Y277767D01*
X276666Y278354D01*
X276841Y279009D01*
Y279687D01*
X276666Y280342D01*
X276327Y280929D01*
X275848Y281409D01*
X275260Y281748D01*
X274605Y281923D01*
D02*
G37*
G36*
X231690Y272654D02*
X230908D01*
X230153Y272451D01*
X229476Y272060D01*
X228924Y271508D01*
X228533Y270831D01*
X228331Y270076D01*
Y269294D01*
X228533Y268539D01*
X228924Y267862D01*
X229476Y267310D01*
X230153Y266919D01*
X230908Y266717D01*
X231690D01*
X232445Y266919D01*
X233122Y267310D01*
X233675Y267862D01*
X234065Y268539D01*
X234268Y269294D01*
Y270076D01*
X234065Y270831D01*
X233675Y271508D01*
X233122Y272060D01*
X232445Y272451D01*
X231690Y272654D01*
D02*
G37*
G36*
X292662Y267339D02*
X291984D01*
X291329Y267163D01*
X290742Y266824D01*
X290354Y266437D01*
X289967Y266824D01*
X289380Y267163D01*
X288725Y267339D01*
X288047D01*
X287392Y267163D01*
X286805Y266824D01*
X286417Y266437D01*
X286030Y266824D01*
X285443Y267163D01*
X284788Y267339D01*
X284110D01*
X283455Y267163D01*
X282868Y266824D01*
X282480Y266437D01*
X282093Y266824D01*
X281506Y267163D01*
X280851Y267339D01*
X280173D01*
X279518Y267163D01*
X278931Y266824D01*
X278451Y266345D01*
X278113Y265758D01*
X277937Y265103D01*
Y264425D01*
X278113Y263770D01*
X278155Y263696D01*
X277643Y263183D01*
X277569Y263226D01*
X276914Y263402D01*
X276236D01*
X275581Y263226D01*
X274994Y262887D01*
X274606Y262500D01*
X274219Y262887D01*
X273632Y263226D01*
X272977Y263402D01*
X272299D01*
X271644Y263226D01*
X271570Y263183D01*
X271057Y263696D01*
X271100Y263770D01*
X271276Y264425D01*
Y265103D01*
X271100Y265758D01*
X270761Y266345D01*
X270282Y266824D01*
X269695Y267163D01*
X269040Y267339D01*
X268362D01*
X267707Y267163D01*
X267120Y266824D01*
X266732Y266437D01*
X266345Y266824D01*
X265758Y267163D01*
X265103Y267339D01*
X264425D01*
X263770Y267163D01*
X263183Y266824D01*
X262703Y266345D01*
X262364Y265758D01*
X262189Y265103D01*
Y264425D01*
X262364Y263770D01*
X262703Y263183D01*
X263091Y262795D01*
X262703Y262408D01*
X262364Y261821D01*
X262189Y261166D01*
Y260488D01*
X262364Y259833D01*
X262703Y259246D01*
X263091Y258858D01*
X262703Y258471D01*
X262364Y257884D01*
X262189Y257229D01*
Y256551D01*
X262364Y255896D01*
X262703Y255309D01*
X263091Y254921D01*
X262703Y254534D01*
X262364Y253947D01*
X262189Y253292D01*
Y252614D01*
X262364Y251959D01*
X262703Y251372D01*
X263091Y250984D01*
X262703Y250597D01*
X262364Y250010D01*
X262189Y249355D01*
Y248677D01*
X262364Y248022D01*
X262703Y247435D01*
X263183Y246955D01*
X263770Y246616D01*
X264425Y246441D01*
X265103D01*
X265758Y246616D01*
X266345Y246955D01*
X266732Y247343D01*
X267120Y246955D01*
X267707Y246616D01*
X268362Y246441D01*
X269040D01*
X269695Y246616D01*
X270282Y246955D01*
X270669Y247343D01*
X271057Y246955D01*
X271644Y246616D01*
X272299Y246441D01*
X272977D01*
X273632Y246616D01*
X274219Y246955D01*
X274606Y247343D01*
X274994Y246955D01*
X275581Y246616D01*
X276236Y246441D01*
X276914D01*
X277569Y246616D01*
X278156Y246955D01*
X278543Y247343D01*
X278931Y246955D01*
X279518Y246616D01*
X280173Y246441D01*
X280851D01*
X281506Y246616D01*
X282093Y246955D01*
X282480Y247343D01*
X282868Y246955D01*
X283455Y246616D01*
X284110Y246441D01*
X284788D01*
X285443Y246616D01*
X286030Y246955D01*
X286417Y247343D01*
X286805Y246955D01*
X287392Y246616D01*
X288047Y246441D01*
X288725D01*
X289380Y246616D01*
X289967Y246955D01*
X290354Y247343D01*
X290742Y246955D01*
X291329Y246616D01*
X291984Y246441D01*
X292662D01*
X293317Y246616D01*
X293904Y246955D01*
X294383Y247435D01*
X294722Y248022D01*
X294898Y248677D01*
Y249355D01*
X294722Y250010D01*
X294383Y250597D01*
X293996Y250984D01*
X294383Y251372D01*
X294722Y251959D01*
X294898Y252614D01*
Y253292D01*
X294722Y253947D01*
X294383Y254534D01*
X293996Y254921D01*
X294383Y255309D01*
X294722Y255896D01*
X294898Y256551D01*
Y257229D01*
X294722Y257884D01*
X294383Y258471D01*
X293996Y258858D01*
X294383Y259246D01*
X294722Y259833D01*
X294898Y260488D01*
Y261166D01*
X294722Y261821D01*
X294383Y262408D01*
X293996Y262795D01*
X294383Y263183D01*
X294722Y263770D01*
X294898Y264425D01*
Y265103D01*
X294722Y265758D01*
X294383Y266345D01*
X293904Y266824D01*
X293317Y267163D01*
X292662Y267339D01*
D02*
G37*
G36*
X390237Y265173D02*
X389291D01*
X388417Y264811D01*
X387748Y264142D01*
X387386Y263268D01*
Y262322D01*
X387748Y261448D01*
X388417Y260779D01*
X389291Y260417D01*
X390237D01*
X391111Y260779D01*
X391780Y261448D01*
X392142Y262322D01*
Y263268D01*
X391780Y264142D01*
X391111Y264811D01*
X390237Y265173D01*
D02*
G37*
G36*
X17253Y256906D02*
X17232D01*
Y253453D01*
X20685D01*
Y253473D01*
X20416Y254479D01*
X19895Y255380D01*
X19159Y256116D01*
X18258Y256636D01*
X17253Y256906D01*
D02*
G37*
G36*
X16232D02*
X16212D01*
X15207Y256636D01*
X14305Y256116D01*
X13569Y255380D01*
X13049Y254479D01*
X12779Y253473D01*
Y253453D01*
X16232D01*
Y256906D01*
D02*
G37*
G36*
X247386Y253559D02*
X246708D01*
X246053Y253384D01*
X245466Y253045D01*
X245079Y252657D01*
X244691Y253045D01*
X244104Y253384D01*
X243449Y253559D01*
X242771D01*
X242116Y253384D01*
X241529Y253045D01*
X241142Y252657D01*
X240754Y253045D01*
X240167Y253384D01*
X239512Y253559D01*
X238834D01*
X238179Y253384D01*
X237592Y253045D01*
X237205Y252657D01*
X236817Y253045D01*
X236230Y253384D01*
X235575Y253559D01*
X234897D01*
X234242Y253384D01*
X233655Y253045D01*
X233268Y252657D01*
X232880Y253045D01*
X232293Y253384D01*
X231638Y253559D01*
X230960D01*
X230305Y253384D01*
X229718Y253045D01*
X229331Y252657D01*
X228943Y253045D01*
X228356Y253384D01*
X227701Y253559D01*
X227023D01*
X226368Y253384D01*
X225781Y253045D01*
X225302Y252565D01*
X224963Y251978D01*
X224787Y251323D01*
Y250645D01*
X224963Y249990D01*
X225302Y249403D01*
X225689Y249016D01*
X225302Y248628D01*
X224963Y248041D01*
X224787Y247386D01*
Y246708D01*
X224963Y246053D01*
X225302Y245466D01*
X225689Y245079D01*
X225302Y244691D01*
X224963Y244104D01*
X224787Y243449D01*
Y242771D01*
X224963Y242116D01*
X225302Y241529D01*
X225689Y241142D01*
X225302Y240754D01*
X224963Y240167D01*
X224787Y239512D01*
Y238834D01*
X224963Y238179D01*
X225302Y237592D01*
X225689Y237205D01*
X225302Y236817D01*
X224963Y236230D01*
X224787Y235575D01*
Y234897D01*
X224963Y234242D01*
X225302Y233655D01*
X225689Y233268D01*
X225302Y232880D01*
X224963Y232293D01*
X224787Y231638D01*
Y230960D01*
X224963Y230305D01*
X225302Y229718D01*
X225689Y229331D01*
X225302Y228943D01*
X224963Y228356D01*
X224787Y227701D01*
Y227023D01*
X224963Y226368D01*
X225302Y225781D01*
X225689Y225394D01*
X225302Y225006D01*
X224963Y224419D01*
X224787Y223764D01*
Y223086D01*
X224963Y222431D01*
X225302Y221844D01*
X225689Y221457D01*
X225302Y221069D01*
X224963Y220482D01*
X224787Y219827D01*
Y219149D01*
X224963Y218494D01*
X225302Y217907D01*
X225781Y217428D01*
X226368Y217089D01*
X227023Y216913D01*
X227701D01*
X228356Y217089D01*
X228943Y217428D01*
X229331Y217815D01*
X229718Y217428D01*
X230305Y217089D01*
X230960Y216913D01*
X231638D01*
X232293Y217089D01*
X232880Y217428D01*
X233268Y217815D01*
X233655Y217428D01*
X234242Y217089D01*
X234897Y216913D01*
X235575D01*
X236230Y217089D01*
X236817Y217428D01*
X237205Y217815D01*
X237592Y217428D01*
X238179Y217089D01*
X238834Y216913D01*
X239512D01*
X240167Y217089D01*
X240754Y217428D01*
X241142Y217815D01*
X241529Y217428D01*
X242116Y217089D01*
X242771Y216913D01*
X243449D01*
X244104Y217089D01*
X244691Y217428D01*
X245079Y217815D01*
X245466Y217428D01*
X246053Y217089D01*
X246708Y216913D01*
X247386D01*
X248041Y217089D01*
X248628Y217428D01*
X249108Y217907D01*
X249447Y218494D01*
X249622Y219149D01*
Y219827D01*
X249447Y220482D01*
X249108Y221069D01*
X248720Y221457D01*
X249108Y221844D01*
X249447Y222431D01*
X249622Y223086D01*
Y223764D01*
X249447Y224419D01*
X249108Y225006D01*
X248720Y225394D01*
X249108Y225781D01*
X249447Y226368D01*
X249622Y227023D01*
Y227701D01*
X249447Y228356D01*
X249108Y228943D01*
X248628Y229423D01*
X248041Y229762D01*
X247386Y229937D01*
X246708D01*
X246053Y229762D01*
X245466Y229423D01*
X245079Y229035D01*
X244691Y229423D01*
X244104Y229762D01*
X243449Y229937D01*
X242771D01*
X242116Y229762D01*
X242042Y229719D01*
X241530Y230231D01*
X241573Y230305D01*
X241748Y230960D01*
Y231638D01*
X241573Y232293D01*
X241234Y232880D01*
X240846Y233268D01*
X241234Y233655D01*
X241573Y234242D01*
X241748Y234897D01*
Y235575D01*
X241573Y236230D01*
X241234Y236817D01*
X240846Y237205D01*
X241234Y237592D01*
X241573Y238179D01*
X241748Y238834D01*
Y239512D01*
X241573Y240167D01*
X241234Y240754D01*
X240846Y241142D01*
X241234Y241529D01*
X241573Y242116D01*
X241748Y242771D01*
Y243449D01*
X241573Y244104D01*
X241530Y244178D01*
X242042Y244691D01*
X242116Y244648D01*
X242771Y244472D01*
X243449D01*
X244104Y244648D01*
X244691Y244987D01*
X245079Y245374D01*
X245466Y244987D01*
X246053Y244648D01*
X246708Y244472D01*
X247386D01*
X248041Y244648D01*
X248628Y244987D01*
X249108Y245466D01*
X249447Y246053D01*
X249622Y246708D01*
Y247386D01*
X249447Y248041D01*
X249108Y248628D01*
X248720Y249016D01*
X249108Y249403D01*
X249447Y249990D01*
X249622Y250645D01*
Y251323D01*
X249447Y251978D01*
X249108Y252565D01*
X248628Y253045D01*
X248041Y253384D01*
X247386Y253559D01*
D02*
G37*
G36*
X20685Y252453D02*
X17232D01*
Y249000D01*
X17253D01*
X18258Y249269D01*
X19159Y249790D01*
X19895Y250526D01*
X20416Y251427D01*
X20685Y252432D01*
Y252453D01*
D02*
G37*
G36*
X16232D02*
X12779D01*
Y252432D01*
X13049Y251427D01*
X13569Y250526D01*
X14305Y249790D01*
X15207Y249269D01*
X16212Y249000D01*
X16232D01*
Y252453D01*
D02*
G37*
G36*
X37096Y259842D02*
X35739D01*
X34408Y259578D01*
X33154Y259058D01*
X32025Y258304D01*
X31066Y257345D01*
X30312Y256216D01*
X29792Y254962D01*
X29528Y253631D01*
Y252274D01*
X29792Y250943D01*
X30312Y249689D01*
X31066Y248561D01*
X32025Y247601D01*
X33154Y246847D01*
X34408Y246328D01*
X35739Y246063D01*
X37096D01*
X38427Y246328D01*
X39681Y246847D01*
X40809Y247601D01*
X41769Y248561D01*
X42523Y249689D01*
X43042Y250943D01*
X43307Y252274D01*
Y253631D01*
X43042Y254962D01*
X42523Y256216D01*
X41769Y257345D01*
X40809Y258304D01*
X39681Y259058D01*
X38427Y259578D01*
X37096Y259842D01*
D02*
G37*
G36*
X300588Y250016D02*
X299806D01*
X299051Y249814D01*
X298374Y249423D01*
X297821Y248870D01*
X297431Y248193D01*
X297228Y247438D01*
Y246656D01*
X297431Y245901D01*
X297821Y245224D01*
X298374Y244672D01*
X299051Y244281D01*
X299806Y244079D01*
X300588D01*
X301343Y244281D01*
X302020Y244672D01*
X302572Y245224D01*
X302963Y245901D01*
X303165Y246656D01*
Y247438D01*
X302963Y248193D01*
X302572Y248870D01*
X302020Y249423D01*
X301343Y249814D01*
X300588Y250016D01*
D02*
G37*
G36*
X199158Y248638D02*
X198480D01*
X197825Y248462D01*
X197238Y248123D01*
X196758Y247644D01*
X196420Y247057D01*
X196244Y246402D01*
Y245724D01*
X196420Y245069D01*
X196758Y244482D01*
X197238Y244003D01*
X197825Y243664D01*
X198480Y243488D01*
X199158D01*
X199813Y243664D01*
X200400Y244003D01*
X200879Y244482D01*
X201218Y245069D01*
X201394Y245724D01*
Y246402D01*
X201218Y247057D01*
X200879Y247644D01*
X200400Y248123D01*
X199813Y248462D01*
X199158Y248638D01*
D02*
G37*
G36*
X321257Y246079D02*
X320475D01*
X319720Y245877D01*
X319043Y245486D01*
X318491Y244933D01*
X318100Y244256D01*
X317898Y243501D01*
Y242719D01*
X318100Y241964D01*
X318491Y241287D01*
X319043Y240735D01*
X319720Y240344D01*
X320475Y240142D01*
X321257D01*
X322012Y240344D01*
X322689Y240735D01*
X323241Y241287D01*
X323632Y241964D01*
X323835Y242719D01*
Y243501D01*
X323632Y244256D01*
X323241Y244933D01*
X322689Y245486D01*
X322012Y245877D01*
X321257Y246079D01*
D02*
G37*
G36*
X289585Y227942D02*
X288907D01*
X288252Y227767D01*
X287665Y227428D01*
X287185Y226949D01*
X286846Y226361D01*
X286671Y225707D01*
Y225029D01*
X286846Y224374D01*
X287185Y223787D01*
X287665Y223307D01*
X288252Y222968D01*
X288907Y222793D01*
X289585D01*
X290239Y222968D01*
X290827Y223307D01*
X291306Y223787D01*
X291645Y224374D01*
X291820Y225029D01*
Y225707D01*
X291645Y226361D01*
X291306Y226949D01*
X290827Y227428D01*
X290239Y227767D01*
X289585Y227942D01*
D02*
G37*
G36*
X362678Y226787D02*
X361732D01*
X360858Y226425D01*
X360189Y225756D01*
X359827Y224883D01*
Y223937D01*
X360189Y223062D01*
X360858Y222393D01*
X361732Y222031D01*
X362678D01*
X363552Y222393D01*
X364221Y223062D01*
X364583Y223937D01*
Y224883D01*
X364221Y225756D01*
X363552Y226425D01*
X362678Y226787D01*
D02*
G37*
G36*
X364646Y219898D02*
X363700D01*
X362826Y219536D01*
X362157Y218867D01*
X361795Y217993D01*
Y217047D01*
X362157Y216173D01*
X362826Y215504D01*
X363700Y215142D01*
X364646D01*
X365520Y215504D01*
X366189Y216173D01*
X366551Y217047D01*
Y217993D01*
X366189Y218867D01*
X365520Y219536D01*
X364646Y219898D01*
D02*
G37*
G36*
X511218Y218567D02*
X510436D01*
X509681Y218365D01*
X509004Y217974D01*
X508451Y217421D01*
X508061Y216744D01*
X507858Y215989D01*
Y215208D01*
X508061Y214453D01*
X508451Y213776D01*
X509004Y213223D01*
X509681Y212832D01*
X510436Y212630D01*
X511218D01*
X511973Y212832D01*
X512649Y213223D01*
X513202Y213776D01*
X513593Y214453D01*
X513795Y215208D01*
Y215989D01*
X513593Y216744D01*
X513202Y217421D01*
X512649Y217974D01*
X511973Y218365D01*
X511218Y218567D01*
D02*
G37*
G36*
X364646Y213008D02*
X363700D01*
X362826Y212646D01*
X362157Y211977D01*
X361795Y211103D01*
Y210157D01*
X362157Y209283D01*
X362826Y208614D01*
X363700Y208252D01*
X364646D01*
X365520Y208614D01*
X366189Y209283D01*
X366551Y210157D01*
Y211103D01*
X366189Y211977D01*
X365520Y212646D01*
X364646Y213008D01*
D02*
G37*
G36*
X118887Y202772D02*
X118610D01*
Y195382D01*
X126000D01*
Y195659D01*
X125697Y197183D01*
X125102Y198619D01*
X124239Y199911D01*
X123140Y201010D01*
X121847Y201874D01*
X120412Y202468D01*
X118887Y202772D01*
D02*
G37*
G36*
X117610D02*
X117333D01*
X115809Y202468D01*
X114373Y201874D01*
X113081Y201010D01*
X111982Y199911D01*
X111118Y198619D01*
X110524Y197183D01*
X110221Y195659D01*
Y195382D01*
X117610D01*
Y202772D01*
D02*
G37*
G36*
X511218Y195516D02*
X510436D01*
X509681Y195313D01*
X509004Y194923D01*
X508451Y194370D01*
X508061Y193693D01*
X507858Y192938D01*
Y192156D01*
X508061Y191401D01*
X508451Y190725D01*
X509004Y190172D01*
X509681Y189781D01*
X510436Y189579D01*
X511218D01*
X511973Y189781D01*
X512649Y190172D01*
X513202Y190725D01*
X513593Y191401D01*
X513795Y192156D01*
Y192938D01*
X513593Y193693D01*
X513202Y194370D01*
X512649Y194923D01*
X511973Y195313D01*
X511218Y195516D01*
D02*
G37*
G36*
X126000Y194382D02*
X118610D01*
Y186992D01*
X118887D01*
X120412Y187295D01*
X121847Y187890D01*
X123140Y188753D01*
X124239Y189852D01*
X125102Y191145D01*
X125697Y192580D01*
X126000Y194105D01*
Y194382D01*
D02*
G37*
G36*
X117610D02*
X110221D01*
Y194105D01*
X110524Y192580D01*
X111118Y191145D01*
X111982Y189852D01*
X113081Y188753D01*
X114373Y187890D01*
X115809Y187295D01*
X117333Y186992D01*
X117610D01*
Y194382D01*
D02*
G37*
G36*
X138962Y205709D02*
X137258D01*
X135575Y205442D01*
X133954Y204915D01*
X132436Y204142D01*
X131057Y203140D01*
X129852Y201935D01*
X128850Y200556D01*
X128077Y199038D01*
X127550Y197417D01*
X127284Y195734D01*
Y194030D01*
X127550Y192347D01*
X128077Y190726D01*
X128850Y189207D01*
X129852Y187829D01*
X131057Y186624D01*
X132436Y185622D01*
X133954Y184848D01*
X135575Y184322D01*
X137258Y184055D01*
X138962D01*
X140646Y184322D01*
X142266Y184848D01*
X143785Y185622D01*
X145163Y186624D01*
X146368Y187829D01*
X147370Y189207D01*
X148144Y190726D01*
X148670Y192347D01*
X148937Y194030D01*
Y195734D01*
X148670Y197417D01*
X148144Y199038D01*
X147370Y200556D01*
X146368Y201935D01*
X145163Y203140D01*
X143785Y204142D01*
X142266Y204915D01*
X140646Y205442D01*
X138962Y205709D01*
D02*
G37*
G36*
X98962D02*
X97258D01*
X95575Y205442D01*
X93954Y204915D01*
X92436Y204142D01*
X91057Y203140D01*
X89852Y201935D01*
X88850Y200556D01*
X88077Y199038D01*
X87550Y197417D01*
X87283Y195734D01*
Y194030D01*
X87550Y192347D01*
X88077Y190726D01*
X88850Y189207D01*
X89852Y187829D01*
X91057Y186624D01*
X92436Y185622D01*
X93954Y184848D01*
X95575Y184322D01*
X97258Y184055D01*
X98962D01*
X100645Y184322D01*
X102266Y184848D01*
X103785Y185622D01*
X105163Y186624D01*
X106368Y187829D01*
X107370Y189207D01*
X108144Y190726D01*
X108670Y192347D01*
X108937Y194030D01*
Y195734D01*
X108670Y197417D01*
X108144Y199038D01*
X107370Y200556D01*
X106368Y201935D01*
X105163Y203140D01*
X103785Y204142D01*
X102266Y204915D01*
X100645Y205442D01*
X98962Y205709D01*
D02*
G37*
G36*
X408855Y174228D02*
X408074D01*
X407319Y174026D01*
X406642Y173635D01*
X406089Y173082D01*
X405698Y172406D01*
X405496Y171651D01*
Y170869D01*
X405698Y170114D01*
X406089Y169437D01*
X406642Y168884D01*
X407319Y168494D01*
X408074Y168291D01*
X408855D01*
X409610Y168494D01*
X410287Y168884D01*
X410840Y169437D01*
X411231Y170114D01*
X411433Y170869D01*
Y171651D01*
X411231Y172406D01*
X410840Y173082D01*
X410287Y173635D01*
X409610Y174026D01*
X408855Y174228D01*
D02*
G37*
G36*
X79584Y173618D02*
X78802D01*
X78047Y173416D01*
X77370Y173025D01*
X76818Y172472D01*
X76427Y171795D01*
X76224Y171040D01*
Y170259D01*
X76427Y169504D01*
X76818Y168827D01*
X77370Y168274D01*
X78047Y167883D01*
X78802Y167681D01*
X79584D01*
X80339Y167883D01*
X81016Y168274D01*
X81568Y168827D01*
X81959Y169504D01*
X82161Y170259D01*
Y171040D01*
X81959Y171795D01*
X81568Y172472D01*
X81016Y173025D01*
X80339Y173416D01*
X79584Y173618D01*
D02*
G37*
G36*
X413777Y169307D02*
X412995D01*
X412240Y169105D01*
X411563Y168714D01*
X411010Y168161D01*
X410620Y167484D01*
X410417Y166729D01*
Y165948D01*
X410620Y165193D01*
X411010Y164516D01*
X411563Y163963D01*
X412240Y163572D01*
X412995Y163370D01*
X413777D01*
X414532Y163572D01*
X415208Y163963D01*
X415761Y164516D01*
X416152Y165193D01*
X416354Y165948D01*
Y166729D01*
X416152Y167484D01*
X415761Y168161D01*
X415208Y168714D01*
X414532Y169105D01*
X413777Y169307D01*
D02*
G37*
G36*
X453147Y168323D02*
X452365D01*
X451610Y168121D01*
X450933Y167730D01*
X450381Y167177D01*
X449990Y166500D01*
X449787Y165745D01*
Y164963D01*
X449990Y164208D01*
X450381Y163532D01*
X450933Y162979D01*
X451610Y162588D01*
X452365Y162386D01*
X453147D01*
X453902Y162588D01*
X454579Y162979D01*
X455131Y163532D01*
X455522Y164208D01*
X455724Y164963D01*
Y165745D01*
X455522Y166500D01*
X455131Y167177D01*
X454579Y167730D01*
X453902Y168121D01*
X453147Y168323D01*
D02*
G37*
G36*
X49317Y160823D02*
X48535D01*
X47780Y160621D01*
X47103Y160230D01*
X46551Y159677D01*
X46160Y159000D01*
X45957Y158245D01*
Y157464D01*
X46160Y156709D01*
X46551Y156032D01*
X47103Y155479D01*
X47780Y155088D01*
X48535Y154886D01*
X49317D01*
X50072Y155088D01*
X50749Y155479D01*
X51301Y156032D01*
X51692Y156709D01*
X51894Y157464D01*
Y158245D01*
X51692Y159000D01*
X51301Y159677D01*
X50749Y160230D01*
X50072Y160621D01*
X49317Y160823D01*
D02*
G37*
G36*
X74663Y159839D02*
X73881D01*
X73126Y159636D01*
X72449Y159246D01*
X71896Y158693D01*
X71505Y158016D01*
X71303Y157261D01*
Y156479D01*
X71505Y155724D01*
X71896Y155047D01*
X72449Y154495D01*
X73126Y154104D01*
X73881Y153902D01*
X74663D01*
X75417Y154104D01*
X76094Y154495D01*
X76647Y155047D01*
X77038Y155724D01*
X77240Y156479D01*
Y157261D01*
X77038Y158016D01*
X76647Y158693D01*
X76094Y159246D01*
X75417Y159636D01*
X74663Y159839D01*
D02*
G37*
G36*
X421651Y158480D02*
X420869D01*
X420114Y158278D01*
X419437Y157887D01*
X418884Y157334D01*
X418494Y156658D01*
X418291Y155903D01*
Y155121D01*
X418494Y154366D01*
X418884Y153689D01*
X419437Y153136D01*
X420114Y152746D01*
X420869Y152543D01*
X421651D01*
X422406Y152746D01*
X423082Y153136D01*
X423635Y153689D01*
X424026Y154366D01*
X424228Y155121D01*
Y155903D01*
X424026Y156658D01*
X423635Y157334D01*
X423082Y157887D01*
X422406Y158278D01*
X421651Y158480D01*
D02*
G37*
G36*
X230009Y212244D02*
X228652D01*
X227321Y211979D01*
X226067Y211460D01*
X224939Y210706D01*
X223979Y209746D01*
X223225Y208618D01*
X222706Y207364D01*
X222441Y206033D01*
Y204676D01*
X222706Y203345D01*
X223225Y202091D01*
X223979Y200962D01*
X224587Y200354D01*
X223979Y199746D01*
X223225Y198618D01*
X222706Y197364D01*
X222441Y196033D01*
Y194676D01*
X222706Y193345D01*
X223225Y192091D01*
X223979Y190962D01*
X224587Y190354D01*
X223979Y189746D01*
X223225Y188618D01*
X222706Y187364D01*
X222441Y186033D01*
Y184676D01*
X222706Y183345D01*
X223225Y182091D01*
X223979Y180962D01*
X224587Y180354D01*
X223979Y179746D01*
X223225Y178618D01*
X222706Y177364D01*
X222441Y176033D01*
Y174676D01*
X222706Y173345D01*
X223225Y172091D01*
X223979Y170962D01*
X224587Y170354D01*
X223979Y169746D01*
X223225Y168618D01*
X222706Y167364D01*
X222441Y166033D01*
Y164676D01*
X222706Y163345D01*
X222920Y162826D01*
X222532Y162244D01*
X222441D01*
Y148465D01*
X236221D01*
Y162244D01*
X236130D01*
X235741Y162826D01*
X235956Y163345D01*
X236221Y164676D01*
Y166033D01*
X235956Y167364D01*
X235436Y168618D01*
X234682Y169746D01*
X234074Y170354D01*
X234682Y170962D01*
X235436Y172091D01*
X235956Y173345D01*
X236221Y174676D01*
Y176033D01*
X235956Y177364D01*
X235436Y178618D01*
X234682Y179746D01*
X234074Y180354D01*
X234682Y180962D01*
X235436Y182091D01*
X235956Y183345D01*
X236221Y184676D01*
Y186033D01*
X235956Y187364D01*
X235436Y188618D01*
X234682Y189746D01*
X234074Y190354D01*
X234682Y190962D01*
X235436Y192091D01*
X235956Y193345D01*
X236221Y194676D01*
Y196033D01*
X235956Y197364D01*
X235436Y198618D01*
X234682Y199746D01*
X234074Y200354D01*
X234682Y200962D01*
X235436Y202091D01*
X235956Y203345D01*
X236221Y204676D01*
Y206033D01*
X235956Y207364D01*
X235436Y208618D01*
X234682Y209746D01*
X233723Y210706D01*
X232594Y211460D01*
X231340Y211979D01*
X230009Y212244D01*
D02*
G37*
G36*
X65804Y153933D02*
X65023D01*
X64268Y153731D01*
X63591Y153340D01*
X63038Y152787D01*
X62647Y152110D01*
X62445Y151355D01*
Y150574D01*
X62647Y149819D01*
X63038Y149142D01*
X63591Y148589D01*
X64268Y148198D01*
X65023Y147996D01*
X65804D01*
X66559Y148198D01*
X67236Y148589D01*
X67789Y149142D01*
X68180Y149819D01*
X68382Y150574D01*
Y151355D01*
X68180Y152110D01*
X67789Y152787D01*
X67236Y153340D01*
X66559Y153731D01*
X65804Y153933D01*
D02*
G37*
G36*
X497064Y147653D02*
X496282D01*
X495527Y147451D01*
X494850Y147060D01*
X494298Y146508D01*
X493907Y145831D01*
X493705Y145076D01*
Y144294D01*
X493907Y143539D01*
X494298Y142862D01*
X494850Y142310D01*
X495527Y141919D01*
X496282Y141717D01*
X497064D01*
X497819Y141919D01*
X498496Y142310D01*
X499049Y142862D01*
X499439Y143539D01*
X499642Y144294D01*
Y145076D01*
X499439Y145831D01*
X499049Y146508D01*
X498496Y147060D01*
X497819Y147451D01*
X497064Y147653D01*
D02*
G37*
G36*
X49317Y147043D02*
X48535D01*
X47780Y146841D01*
X47103Y146450D01*
X46551Y145897D01*
X46160Y145221D01*
X45957Y144466D01*
Y143684D01*
X46160Y142929D01*
X46551Y142252D01*
X47103Y141699D01*
X47780Y141309D01*
X48535Y141106D01*
X49317D01*
X50072Y141309D01*
X50749Y141699D01*
X51301Y142252D01*
X51692Y142929D01*
X51894Y143684D01*
Y144466D01*
X51692Y145221D01*
X51301Y145897D01*
X50749Y146450D01*
X50072Y146841D01*
X49317Y147043D01*
D02*
G37*
G36*
X443304Y146669D02*
X442523D01*
X441768Y146467D01*
X441091Y146076D01*
X440538Y145524D01*
X440147Y144847D01*
X439945Y144092D01*
Y143310D01*
X440147Y142555D01*
X440538Y141878D01*
X441091Y141325D01*
X441768Y140935D01*
X442523Y140732D01*
X443304D01*
X444059Y140935D01*
X444736Y141325D01*
X445289Y141878D01*
X445680Y142555D01*
X445882Y143310D01*
Y144092D01*
X445680Y144847D01*
X445289Y145524D01*
X444736Y146076D01*
X444059Y146467D01*
X443304Y146669D01*
D02*
G37*
G36*
X51040Y140154D02*
X50259D01*
X49504Y139951D01*
X48827Y139560D01*
X48274Y139008D01*
X47883Y138331D01*
X47681Y137576D01*
Y136794D01*
X47883Y136039D01*
X48274Y135362D01*
X48827Y134810D01*
X49504Y134419D01*
X50259Y134216D01*
X51040D01*
X51795Y134419D01*
X52472Y134810D01*
X53025Y135362D01*
X53416Y136039D01*
X53618Y136794D01*
Y137576D01*
X53416Y138331D01*
X53025Y139008D01*
X52472Y139560D01*
X51795Y139951D01*
X51040Y140154D01*
D02*
G37*
G36*
X69689Y130902D02*
X69011D01*
X68357Y130726D01*
X67769Y130387D01*
X67382Y130000D01*
X66994Y130387D01*
X66407Y130726D01*
X65752Y130902D01*
X65074D01*
X64420Y130726D01*
X63832Y130387D01*
X63445Y130000D01*
X63057Y130387D01*
X62470Y130726D01*
X61815Y130902D01*
X61137D01*
X60483Y130726D01*
X59895Y130387D01*
X59508Y130000D01*
X59120Y130387D01*
X58533Y130726D01*
X57878Y130902D01*
X57200D01*
X56546Y130726D01*
X55958Y130387D01*
X55571Y130000D01*
X55183Y130387D01*
X54596Y130726D01*
X53941Y130902D01*
X53263D01*
X52609Y130726D01*
X52021Y130387D01*
X51634Y130000D01*
X51246Y130387D01*
X50659Y130726D01*
X50004Y130902D01*
X49326D01*
X48671Y130726D01*
X48084Y130387D01*
X47697Y130000D01*
X47309Y130387D01*
X46722Y130726D01*
X46067Y130902D01*
X45389D01*
X44734Y130726D01*
X44147Y130387D01*
X43668Y129908D01*
X43329Y129321D01*
X43154Y128666D01*
Y127988D01*
X43329Y127333D01*
X43668Y126746D01*
X44056Y126358D01*
X43668Y125971D01*
X43329Y125384D01*
X43154Y124729D01*
Y124051D01*
X43329Y123396D01*
X43668Y122809D01*
X44056Y122421D01*
X43668Y122034D01*
X43329Y121447D01*
X43154Y120792D01*
Y120114D01*
X43329Y119459D01*
X43668Y118872D01*
X44056Y118484D01*
X43668Y118097D01*
X43329Y117510D01*
X43154Y116855D01*
Y116177D01*
X43329Y115522D01*
X43668Y114935D01*
X44147Y114455D01*
X44734Y114116D01*
X45389Y113941D01*
X46067D01*
X46722Y114116D01*
X47309Y114455D01*
X47697Y114843D01*
X48084Y114455D01*
X48671Y114116D01*
X49326Y113941D01*
X50004D01*
X50659Y114116D01*
X51246Y114455D01*
X51634Y114843D01*
X52021Y114455D01*
X52609Y114116D01*
X53263Y113941D01*
X53941D01*
X54596Y114116D01*
X55183Y114455D01*
X55571Y114843D01*
X55958Y114455D01*
X56546Y114116D01*
X57200Y113941D01*
X57878D01*
X58533Y114116D01*
X59120Y114455D01*
X59508Y114843D01*
X59895Y114455D01*
X60483Y114116D01*
X61137Y113941D01*
X61815D01*
X62470Y114116D01*
X63057Y114455D01*
X63445Y114843D01*
X63832Y114455D01*
X64420Y114116D01*
X65074Y113941D01*
X65752D01*
X66407Y114116D01*
X66994Y114455D01*
X67382Y114843D01*
X67769Y114455D01*
X68357Y114116D01*
X69011Y113941D01*
X69689D01*
X70344Y114116D01*
X70931Y114455D01*
X71319Y114843D01*
X71706Y114455D01*
X72294Y114116D01*
X72948Y113941D01*
X73626D01*
X74281Y114116D01*
X74868Y114455D01*
X75348Y114935D01*
X75687Y115522D01*
X75862Y116177D01*
Y116855D01*
X75687Y117510D01*
X75348Y118097D01*
X74960Y118484D01*
X75348Y118872D01*
X75687Y119459D01*
X75862Y120114D01*
Y120792D01*
X75687Y121447D01*
X75348Y122034D01*
X74960Y122421D01*
X75348Y122809D01*
X75687Y123396D01*
X75862Y124051D01*
Y124729D01*
X75687Y125384D01*
X75348Y125971D01*
X74868Y126450D01*
X74281Y126789D01*
X73626Y126965D01*
X72948D01*
X72294Y126789D01*
X72219Y126746D01*
X71707Y127259D01*
X71750Y127333D01*
X71925Y127988D01*
Y128666D01*
X71750Y129321D01*
X71411Y129908D01*
X70931Y130387D01*
X70344Y130726D01*
X69689Y130902D01*
D02*
G37*
G36*
X95607Y130709D02*
X94929D01*
X94274Y130533D01*
X93687Y130194D01*
X93299Y129807D01*
X92912Y130194D01*
X92325Y130533D01*
X91670Y130709D01*
X90992D01*
X90337Y130533D01*
X89750Y130194D01*
X89362Y129807D01*
X88975Y130194D01*
X88388Y130533D01*
X87733Y130709D01*
X87055D01*
X86400Y130533D01*
X85813Y130194D01*
X85333Y129715D01*
X84994Y129128D01*
X84819Y128473D01*
Y127795D01*
X84994Y127140D01*
X85333Y126553D01*
X85721Y126165D01*
X85333Y125778D01*
X84994Y125191D01*
X84819Y124536D01*
Y123858D01*
X84994Y123203D01*
X85333Y122616D01*
X85813Y122136D01*
X86400Y121798D01*
X87055Y121622D01*
X87733D01*
X88388Y121798D01*
X88975Y122136D01*
X89362Y122524D01*
X89750Y122136D01*
X90337Y121798D01*
X90992Y121622D01*
X91670D01*
X92325Y121798D01*
X92912Y122136D01*
X93300Y122524D01*
X93687Y122137D01*
X94274Y121798D01*
X94929Y121623D01*
X95607D01*
X96262Y121798D01*
X96849Y122137D01*
X97328Y122617D01*
X97667Y123204D01*
X97843Y123859D01*
Y124537D01*
X97667Y125191D01*
X97328Y125779D01*
X96941Y126166D01*
X97328Y126553D01*
X97667Y127140D01*
X97843Y127795D01*
Y128473D01*
X97667Y129128D01*
X97328Y129715D01*
X96849Y130194D01*
X96262Y130533D01*
X95607Y130709D01*
D02*
G37*
G36*
X228004Y124470D02*
X227222D01*
X226467Y124268D01*
X225791Y123877D01*
X225238Y123324D01*
X224847Y122647D01*
X224645Y121892D01*
Y121111D01*
X224847Y120356D01*
X225238Y119679D01*
X225791Y119126D01*
X226467Y118735D01*
X227222Y118533D01*
X228004D01*
X228759Y118735D01*
X229436Y119126D01*
X229989Y119679D01*
X230380Y120356D01*
X230582Y121111D01*
Y121892D01*
X230380Y122647D01*
X229989Y123324D01*
X229436Y123877D01*
X228759Y124268D01*
X228004Y124470D01*
D02*
G37*
G36*
X235028Y124261D02*
X234247D01*
X233492Y124059D01*
X232815Y123668D01*
X232262Y123116D01*
X231871Y122439D01*
X231669Y121684D01*
Y120902D01*
X231871Y120147D01*
X232262Y119470D01*
X232815Y118918D01*
X233492Y118527D01*
X234247Y118324D01*
X235028D01*
X235783Y118527D01*
X236460Y118918D01*
X237013Y119470D01*
X237404Y120147D01*
X237606Y120902D01*
Y121684D01*
X237404Y122439D01*
X237013Y123116D01*
X236460Y123668D01*
X235783Y124059D01*
X235028Y124261D01*
D02*
G37*
G36*
X194418Y114189D02*
X194398D01*
Y110736D01*
X197850D01*
Y110757D01*
X197581Y111762D01*
X197061Y112663D01*
X196325Y113399D01*
X195423Y113920D01*
X194418Y114189D01*
D02*
G37*
G36*
X193398D02*
X193377D01*
X192372Y113920D01*
X191471Y113399D01*
X190735Y112663D01*
X190214Y111762D01*
X189945Y110757D01*
Y110736D01*
X193398D01*
Y114189D01*
D02*
G37*
G36*
X465942Y115173D02*
X465160D01*
X464405Y114971D01*
X463729Y114580D01*
X463176Y114027D01*
X462785Y113350D01*
X462583Y112595D01*
Y111814D01*
X462785Y111059D01*
X463176Y110382D01*
X463729Y109829D01*
X464405Y109439D01*
X465160Y109236D01*
X465942D01*
X466697Y109439D01*
X467374Y109829D01*
X467927Y110382D01*
X468317Y111059D01*
X468520Y111814D01*
Y112595D01*
X468317Y113350D01*
X467927Y114027D01*
X467374Y114580D01*
X466697Y114971D01*
X465942Y115173D01*
D02*
G37*
G36*
X486611Y113205D02*
X485830D01*
X485075Y113002D01*
X484398Y112612D01*
X483845Y112059D01*
X483454Y111382D01*
X483252Y110627D01*
Y109845D01*
X483454Y109090D01*
X483845Y108414D01*
X484398Y107861D01*
X485075Y107470D01*
X485830Y107268D01*
X486611D01*
X487366Y107470D01*
X488043Y107861D01*
X488596Y108414D01*
X488987Y109090D01*
X489189Y109845D01*
Y110627D01*
X488987Y111382D01*
X488596Y112059D01*
X488043Y112612D01*
X487366Y113002D01*
X486611Y113205D01*
D02*
G37*
G36*
X197850Y109736D02*
X194398D01*
Y106283D01*
X194418D01*
X195423Y106553D01*
X196325Y107073D01*
X197061Y107809D01*
X197581Y108711D01*
X197850Y109716D01*
Y109736D01*
D02*
G37*
G36*
X193398D02*
X189945D01*
Y109716D01*
X190214Y108711D01*
X190735Y107809D01*
X191471Y107073D01*
X192372Y106553D01*
X193377Y106283D01*
X193398D01*
Y109736D01*
D02*
G37*
G36*
X174891Y117126D02*
X173534D01*
X172203Y116861D01*
X170949Y116342D01*
X169821Y115588D01*
X168861Y114628D01*
X168107Y113500D01*
X167588Y112246D01*
X167323Y110915D01*
Y109558D01*
X167588Y108227D01*
X168107Y106973D01*
X168861Y105844D01*
X169821Y104885D01*
X170949Y104131D01*
X172203Y103611D01*
X173534Y103347D01*
X174891D01*
X176222Y103611D01*
X177476Y104131D01*
X178605Y104885D01*
X179564Y105844D01*
X180318Y106973D01*
X180838Y108227D01*
X181102Y109558D01*
Y110915D01*
X180838Y112246D01*
X180318Y113500D01*
X179564Y114628D01*
X178605Y115588D01*
X177476Y116342D01*
X176222Y116861D01*
X174891Y117126D01*
D02*
G37*
G36*
X180457Y101984D02*
X179779D01*
X179124Y101809D01*
X178537Y101470D01*
X178150Y101082D01*
X177762Y101470D01*
X177175Y101809D01*
X176520Y101984D01*
X175842D01*
X175187Y101809D01*
X174600Y101470D01*
X174213Y101082D01*
X173825Y101470D01*
X173238Y101809D01*
X172583Y101984D01*
X171905D01*
X171250Y101809D01*
X170663Y101470D01*
X170276Y101082D01*
X169888Y101470D01*
X169301Y101809D01*
X168646Y101984D01*
X167968D01*
X167313Y101809D01*
X166726Y101470D01*
X166339Y101082D01*
X165951Y101470D01*
X165364Y101809D01*
X164709Y101984D01*
X164031D01*
X163376Y101809D01*
X162789Y101470D01*
X162310Y100990D01*
X161971Y100403D01*
X161795Y99748D01*
Y99071D01*
X161971Y98416D01*
X162310Y97829D01*
X162697Y97441D01*
X162310Y97053D01*
X161971Y96466D01*
X161795Y95811D01*
Y95134D01*
X161971Y94479D01*
X162310Y93892D01*
X162697Y93504D01*
X162310Y93116D01*
X161971Y92529D01*
X161795Y91874D01*
Y91197D01*
X161971Y90542D01*
X162310Y89955D01*
X162697Y89567D01*
X162310Y89179D01*
X161971Y88592D01*
X161795Y87937D01*
Y87259D01*
X161971Y86605D01*
X162310Y86017D01*
X162697Y85630D01*
X162310Y85242D01*
X161971Y84655D01*
X161795Y84000D01*
Y83322D01*
X161971Y82668D01*
X162310Y82080D01*
X162697Y81693D01*
X162310Y81305D01*
X161971Y80718D01*
X161795Y80063D01*
Y79385D01*
X161971Y78731D01*
X162310Y78143D01*
X162789Y77664D01*
X163376Y77325D01*
X164031Y77150D01*
X164709D01*
X165364Y77325D01*
X165951Y77664D01*
X166339Y78052D01*
X166726Y77664D01*
X167313Y77325D01*
X167968Y77150D01*
X168646D01*
X169301Y77325D01*
X169888Y77664D01*
X170276Y78052D01*
X170663Y77664D01*
X171250Y77325D01*
X171905Y77150D01*
X172583D01*
X173238Y77325D01*
X173825Y77664D01*
X174213Y78052D01*
X174600Y77664D01*
X175187Y77325D01*
X175842Y77150D01*
X176520D01*
X177175Y77325D01*
X177762Y77664D01*
X178150Y78052D01*
X178537Y77664D01*
X179124Y77325D01*
X179779Y77150D01*
X180457D01*
X181112Y77325D01*
X181699Y77664D01*
X182087Y78052D01*
X182474Y77664D01*
X183061Y77325D01*
X183716Y77150D01*
X184394D01*
X185049Y77325D01*
X185636Y77664D01*
X186024Y78052D01*
X186411Y77664D01*
X186998Y77325D01*
X187653Y77150D01*
X188331D01*
X188986Y77325D01*
X189573Y77664D01*
X189961Y78052D01*
X190348Y77664D01*
X190935Y77325D01*
X191590Y77150D01*
X192268D01*
X192923Y77325D01*
X193510Y77664D01*
X193990Y78143D01*
X194328Y78731D01*
X194504Y79385D01*
Y80063D01*
X194328Y80718D01*
X193990Y81305D01*
X193602Y81693D01*
X193990Y82080D01*
X194328Y82668D01*
X194504Y83322D01*
Y84000D01*
X194328Y84655D01*
X193990Y85242D01*
X193602Y85630D01*
X193990Y86018D01*
X194328Y86605D01*
X194504Y87260D01*
Y87937D01*
X194328Y88592D01*
X193990Y89179D01*
X193510Y89659D01*
X192923Y89998D01*
X192268Y90173D01*
X191590D01*
X190935Y89998D01*
X190348Y89659D01*
X189961Y89271D01*
X189573Y89659D01*
X188986Y89998D01*
X188331Y90173D01*
X187653D01*
X186998Y89998D01*
X186411Y89659D01*
X186024Y89271D01*
X185636Y89659D01*
X185049Y89998D01*
X184394Y90173D01*
X183716D01*
X183061Y89998D01*
X182987Y89955D01*
X182475Y90467D01*
X182517Y90542D01*
X182693Y91197D01*
Y91874D01*
X182517Y92529D01*
X182178Y93116D01*
X181791Y93504D01*
X182178Y93892D01*
X182517Y94479D01*
X182693Y95134D01*
Y95811D01*
X182517Y96466D01*
X182178Y97053D01*
X181791Y97441D01*
X182178Y97829D01*
X182517Y98416D01*
X182693Y99071D01*
Y99748D01*
X182517Y100403D01*
X182178Y100990D01*
X181699Y101470D01*
X181112Y101809D01*
X180457Y101984D01*
D02*
G37*
G36*
X229721Y102378D02*
X228940D01*
X228185Y102176D01*
X227508Y101785D01*
X226955Y101232D01*
X226565Y100555D01*
X226362Y99800D01*
Y99019D01*
X226565Y98264D01*
X226955Y97587D01*
X227508Y97034D01*
X228185Y96643D01*
X228940Y96441D01*
X229721D01*
X230476Y96643D01*
X231153Y97034D01*
X231706Y97587D01*
X232097Y98264D01*
X232299Y99019D01*
Y99800D01*
X232097Y100555D01*
X231706Y101232D01*
X231153Y101785D01*
X230476Y102176D01*
X229721Y102378D01*
D02*
G37*
G36*
X237044Y99681D02*
X236263D01*
X235508Y99479D01*
X234831Y99088D01*
X234278Y98535D01*
X233887Y97859D01*
X233685Y97104D01*
Y96322D01*
X233887Y95567D01*
X234278Y94890D01*
X234831Y94337D01*
X235508Y93946D01*
X236263Y93744D01*
X237044D01*
X237799Y93946D01*
X238476Y94337D01*
X239029Y94890D01*
X239420Y95567D01*
X239622Y96322D01*
Y97104D01*
X239420Y97859D01*
X239029Y98535D01*
X238476Y99088D01*
X237799Y99479D01*
X237044Y99681D01*
D02*
G37*
G36*
X46020Y98080D02*
X45135D01*
X44280Y97851D01*
X43513Y97408D01*
X42887Y96782D01*
X42445Y96015D01*
X42216Y95160D01*
Y94275D01*
X42445Y93420D01*
X42887Y92653D01*
X43513Y92027D01*
X44280Y91584D01*
X45135Y91355D01*
X46020D01*
X46876Y91584D01*
X47642Y92027D01*
X48268Y92653D01*
X48711Y93420D01*
X48940Y94275D01*
Y95160D01*
X48711Y96015D01*
X48268Y96782D01*
X47642Y97408D01*
X46876Y97851D01*
X46020Y98080D01*
D02*
G37*
G36*
X19143Y83087D02*
X18258D01*
X17403Y82858D01*
X16636Y82415D01*
X16010Y81789D01*
X15568Y81022D01*
X15339Y80167D01*
Y79282D01*
X15568Y78427D01*
X16010Y77660D01*
X16636Y77034D01*
X17403Y76591D01*
X18258Y76362D01*
X19143D01*
X19999Y76591D01*
X20765Y77034D01*
X21391Y77660D01*
X21834Y78427D01*
X22063Y79282D01*
Y80167D01*
X21834Y81022D01*
X21391Y81789D01*
X20765Y82415D01*
X19999Y82858D01*
X19143Y83087D01*
D02*
G37*
G36*
X57388Y65909D02*
X56502D01*
X55647Y65680D01*
X54880Y65237D01*
X54255Y64612D01*
X53812Y63845D01*
X53583Y62990D01*
Y62104D01*
X53812Y61249D01*
X54255Y60483D01*
X54880Y59857D01*
X55647Y59414D01*
X56502Y59185D01*
X57388D01*
X58243Y59414D01*
X59009Y59857D01*
X59635Y60483D01*
X60078Y61249D01*
X60307Y62104D01*
Y62990D01*
X60078Y63845D01*
X59635Y64612D01*
X59009Y65237D01*
X58243Y65680D01*
X57388Y65909D01*
D02*
G37*
G36*
X356690Y57102D02*
X355908D01*
X355153Y56900D01*
X354476Y56509D01*
X354331Y56363D01*
X354185Y56509D01*
X353508Y56900D01*
X352753Y57102D01*
X351971D01*
X351216Y56900D01*
X350539Y56509D01*
X350394Y56363D01*
X350248Y56509D01*
X349571Y56900D01*
X348816Y57102D01*
X348034D01*
X347279Y56900D01*
X346603Y56509D01*
X346457Y56363D01*
X346311Y56509D01*
X345634Y56900D01*
X344879Y57102D01*
X344097D01*
X343342Y56900D01*
X342666Y56509D01*
X342520Y56363D01*
X342374Y56509D01*
X341697Y56900D01*
X340942Y57102D01*
X340160D01*
X339405Y56900D01*
X338728Y56509D01*
X338176Y55957D01*
X337785Y55280D01*
X337583Y54525D01*
Y53743D01*
X337785Y52988D01*
X338176Y52311D01*
X338322Y52165D01*
X338176Y52020D01*
X337785Y51343D01*
X337583Y50588D01*
Y49806D01*
X337785Y49051D01*
X338176Y48374D01*
X338322Y48228D01*
X338176Y48083D01*
X337785Y47406D01*
X337583Y46651D01*
Y45869D01*
X337785Y45114D01*
X338176Y44437D01*
X338322Y44291D01*
X338176Y44146D01*
X337785Y43469D01*
X337583Y42714D01*
Y41932D01*
X337785Y41177D01*
X338176Y40500D01*
X338728Y39947D01*
X339405Y39557D01*
X340160Y39354D01*
X340942D01*
X341697Y39557D01*
X342374Y39947D01*
X342520Y40093D01*
X342666Y39947D01*
X343342Y39557D01*
X344097Y39354D01*
X344879D01*
X345634Y39557D01*
X346311Y39947D01*
X346457Y40093D01*
X346603Y39947D01*
X347279Y39557D01*
X348034Y39354D01*
X348816D01*
X349571Y39557D01*
X350248Y39947D01*
X350394Y40093D01*
X350539Y39947D01*
X351216Y39557D01*
X351971Y39354D01*
X352753D01*
X353508Y39557D01*
X354185Y39947D01*
X354331Y40093D01*
X354476Y39947D01*
X355153Y39557D01*
X355908Y39354D01*
X356690D01*
X357445Y39557D01*
X358122Y39947D01*
X358675Y40500D01*
X359065Y41177D01*
X359268Y41932D01*
Y42714D01*
X359065Y43469D01*
X358675Y44146D01*
X358529Y44291D01*
X358675Y44437D01*
X359065Y45114D01*
X359268Y45869D01*
Y46651D01*
X359065Y47406D01*
X358675Y48083D01*
X358529Y48228D01*
X358675Y48374D01*
X359065Y49051D01*
X359268Y49806D01*
Y50588D01*
X359065Y51343D01*
X358675Y52020D01*
X358529Y52165D01*
X358675Y52311D01*
X359065Y52988D01*
X359268Y53743D01*
Y54525D01*
X359065Y55280D01*
X358675Y55957D01*
X358122Y56509D01*
X357445Y56900D01*
X356690Y57102D01*
D02*
G37*
G36*
X474763Y55413D02*
X473348D01*
X471959Y55137D01*
X470652Y54596D01*
X469475Y53809D01*
X469055Y53390D01*
X468635Y53809D01*
X467458Y54596D01*
X466151Y55137D01*
X464763Y55413D01*
X463347D01*
X461959Y55137D01*
X460652Y54596D01*
X459475Y53809D01*
X459055Y53390D01*
X458635Y53809D01*
X457458Y54596D01*
X456151Y55137D01*
X454763Y55413D01*
X453347D01*
X451959Y55137D01*
X450652Y54596D01*
X449475Y53809D01*
X449055Y53390D01*
X448635Y53809D01*
X447459Y54596D01*
X446151Y55137D01*
X444763Y55413D01*
X443348D01*
X441959Y55137D01*
X440652Y54596D01*
X439475Y53809D01*
X439055Y53390D01*
X438635Y53809D01*
X437459Y54596D01*
X436151Y55137D01*
X434763Y55413D01*
X433348D01*
X431959Y55137D01*
X430652Y54596D01*
X429475Y53809D01*
X428474Y52809D01*
X427688Y51632D01*
X427146Y50324D01*
X426870Y48936D01*
Y47521D01*
X427146Y46132D01*
X427688Y44825D01*
X428474Y43648D01*
X429475Y42647D01*
X430652Y41861D01*
X431959Y41319D01*
X433348Y41043D01*
X434763D01*
X436151Y41319D01*
X437459Y41861D01*
X438635Y42647D01*
X439055Y43067D01*
X439475Y42647D01*
X440652Y41861D01*
X441959Y41319D01*
X443348Y41043D01*
X444763D01*
X446151Y41319D01*
X447459Y41861D01*
X448635Y42647D01*
X449055Y43067D01*
X449475Y42647D01*
X450652Y41861D01*
X451959Y41319D01*
X453347Y41043D01*
X454763D01*
X456151Y41319D01*
X457458Y41861D01*
X458635Y42647D01*
X459055Y43067D01*
X459475Y42647D01*
X460652Y41861D01*
X461959Y41319D01*
X463347Y41043D01*
X464763D01*
X466151Y41319D01*
X467458Y41861D01*
X468635Y42647D01*
X469055Y43067D01*
X469475Y42647D01*
X470652Y41861D01*
X471959Y41319D01*
X473348Y41043D01*
X474763D01*
X476151Y41319D01*
X477458Y41861D01*
X478635Y42647D01*
X479636Y43648D01*
X480422Y44825D01*
X480483Y44970D01*
X481169Y45107D01*
X481447Y44829D01*
X482415Y44270D01*
X483496Y43980D01*
X483555D01*
Y48228D01*
Y52476D01*
X483496D01*
X482415Y52187D01*
X481447Y51628D01*
X481169Y51350D01*
X480483Y51486D01*
X480422Y51632D01*
X479636Y52809D01*
X478635Y53809D01*
X477458Y54596D01*
X476151Y55137D01*
X474763Y55413D01*
D02*
G37*
G36*
X501240D02*
X486870D01*
Y52317D01*
X486170Y51912D01*
X485695Y52187D01*
X484614Y52476D01*
X484555D01*
Y48228D01*
Y43980D01*
X484614D01*
X485695Y44270D01*
X486170Y44544D01*
X486870Y44140D01*
Y41043D01*
X501240D01*
Y55413D01*
D02*
G37*
G36*
X45748Y54573D02*
X44862D01*
X44007Y54343D01*
X43240Y53901D01*
X42614Y53275D01*
X42172Y52508D01*
X41943Y51653D01*
Y50768D01*
X42172Y49913D01*
X42614Y49146D01*
X43240Y48520D01*
X44007Y48077D01*
X44862Y47848D01*
X45748D01*
X46603Y48077D01*
X47369Y48520D01*
X47995Y49146D01*
X48438Y49913D01*
X48667Y50768D01*
Y51653D01*
X48438Y52508D01*
X47995Y53275D01*
X47369Y53901D01*
X46603Y54343D01*
X45748Y54573D01*
D02*
G37*
G36*
X178698Y50213D02*
X177916D01*
X177161Y50010D01*
X176484Y49619D01*
X175932Y49067D01*
X175541Y48390D01*
X175339Y47635D01*
Y46853D01*
X175475Y46343D01*
X174995Y45845D01*
X174926Y45813D01*
X174761Y45882D01*
X172859Y46260D01*
X170920D01*
X169019Y45882D01*
X167228Y45140D01*
X165615Y44063D01*
X164245Y42692D01*
X163167Y41080D01*
X162425Y39288D01*
X162247Y38389D01*
X161533D01*
X161354Y39288D01*
X160612Y41080D01*
X159535Y42692D01*
X158622Y43604D01*
X158831Y44385D01*
X159177Y44478D01*
X159854Y44869D01*
X160407Y45421D01*
X160798Y46098D01*
X161000Y46853D01*
Y47635D01*
X160798Y48390D01*
X160407Y49067D01*
X159854Y49619D01*
X159177Y50010D01*
X158422Y50213D01*
X157641D01*
X156886Y50010D01*
X156209Y49619D01*
X155656Y49067D01*
X155265Y48390D01*
X155063Y47635D01*
Y46853D01*
X155165Y46472D01*
X154993Y46220D01*
X154590Y45915D01*
X152859Y46260D01*
X150920D01*
X149019Y45882D01*
X147228Y45140D01*
X145615Y44063D01*
X144245Y42692D01*
X143167Y41080D01*
X142426Y39288D01*
X142047Y37387D01*
Y35448D01*
X142426Y33546D01*
X143167Y31755D01*
X144245Y30143D01*
X145615Y28772D01*
X147228Y27695D01*
X149019Y26953D01*
X150920Y26575D01*
X152859D01*
X154761Y26953D01*
X156552Y27695D01*
X158164Y28772D01*
X159535Y30143D01*
X160612Y31755D01*
X161354Y33546D01*
X161533Y34446D01*
X162247D01*
X162425Y33546D01*
X163167Y31755D01*
X164245Y30143D01*
X165615Y28772D01*
X167228Y27695D01*
X169019Y26953D01*
X170920Y26575D01*
X172859D01*
X174761Y26953D01*
X176552Y27695D01*
X178164Y28772D01*
X179535Y30143D01*
X180612Y31755D01*
X181354Y33546D01*
X182047Y33443D01*
Y26575D01*
X201732D01*
Y46260D01*
X182047D01*
Y39391D01*
X181354Y39288D01*
X180612Y41080D01*
X179535Y42692D01*
X178651Y43576D01*
X178667Y43817D01*
X178890Y44327D01*
X179453Y44478D01*
X180130Y44869D01*
X180683Y45421D01*
X181073Y46098D01*
X181276Y46853D01*
Y47635D01*
X181073Y48390D01*
X180683Y49067D01*
X180130Y49619D01*
X179453Y50010D01*
X178698Y50213D01*
D02*
G37*
G36*
X97733D02*
X96952D01*
X96197Y50010D01*
X95520Y49619D01*
X94967Y49067D01*
X94576Y48390D01*
X94374Y47635D01*
Y46853D01*
X94384Y46815D01*
X93958Y46260D01*
X93819D01*
Y39391D01*
X93126Y39288D01*
X92384Y41080D01*
X91307Y42692D01*
X89936Y44063D01*
X88324Y45140D01*
X86532Y45882D01*
X84631Y46260D01*
X82692D01*
X80791Y45882D01*
X78999Y45140D01*
X77387Y44063D01*
X76016Y42692D01*
X74939Y41080D01*
X74197Y39288D01*
X73819Y37387D01*
Y35448D01*
X74197Y33546D01*
X74939Y31755D01*
X76016Y30143D01*
X77387Y28772D01*
X78999Y27695D01*
X80791Y26953D01*
X82692Y26575D01*
X84631D01*
X86532Y26953D01*
X88324Y27695D01*
X89936Y28772D01*
X91307Y30143D01*
X92384Y31755D01*
X93126Y33546D01*
X93819Y33443D01*
Y26575D01*
X113504D01*
Y46260D01*
X100727D01*
X100301Y46815D01*
X100311Y46853D01*
Y47635D01*
X100109Y48390D01*
X99718Y49067D01*
X99165Y49619D01*
X98488Y50010D01*
X97733Y50213D01*
D02*
G37*
G36*
X64341Y43323D02*
X64161D01*
Y36917D01*
X70567D01*
Y37097D01*
X70302Y38432D01*
X69781Y39688D01*
X69025Y40819D01*
X68063Y41781D01*
X66932Y42537D01*
X65676Y43058D01*
X64341Y43323D01*
D02*
G37*
G36*
X132570D02*
X132390D01*
Y36917D01*
X138795D01*
Y37097D01*
X138530Y38432D01*
X138009Y39688D01*
X137254Y40819D01*
X136292Y41781D01*
X135161Y42537D01*
X133904Y43058D01*
X132570Y43323D01*
D02*
G37*
G36*
X131390D02*
X131210D01*
X129876Y43058D01*
X128619Y42537D01*
X127488Y41781D01*
X126526Y40819D01*
X125770Y39688D01*
X125250Y38432D01*
X124984Y37097D01*
Y36917D01*
X131390D01*
Y43323D01*
D02*
G37*
G36*
X63161D02*
X62981D01*
X61647Y43058D01*
X60390Y42537D01*
X59259Y41781D01*
X58298Y40819D01*
X57542Y39688D01*
X57021Y38432D01*
X56756Y37097D01*
Y36917D01*
X63161D01*
Y43323D01*
D02*
G37*
G36*
X138795Y35917D02*
X132390D01*
Y29512D01*
X132570D01*
X133904Y29777D01*
X135161Y30298D01*
X136292Y31054D01*
X137254Y32015D01*
X138009Y33146D01*
X138530Y34403D01*
X138795Y35737D01*
Y35917D01*
D02*
G37*
G36*
X131390D02*
X124984D01*
Y35737D01*
X125250Y34403D01*
X125770Y33146D01*
X126526Y32015D01*
X127488Y31054D01*
X128619Y30298D01*
X129876Y29777D01*
X131210Y29512D01*
X131390D01*
Y35917D01*
D02*
G37*
G36*
X70567D02*
X64161D01*
Y29512D01*
X64341D01*
X65676Y29777D01*
X66932Y30298D01*
X68063Y31054D01*
X69025Y32015D01*
X69781Y33146D01*
X70302Y34403D01*
X70567Y35737D01*
Y35917D01*
D02*
G37*
G36*
X63161D02*
X56756D01*
Y35737D01*
X57021Y34403D01*
X57542Y33146D01*
X58298Y32015D01*
X59259Y31054D01*
X60390Y30298D01*
X61647Y29777D01*
X62981Y29512D01*
X63161D01*
Y35917D01*
D02*
G37*
%LPD*%
D27*
X244094Y316122D02*
D03*
X236653Y96713D02*
D03*
X229331Y99410D02*
D03*
X227613Y121502D02*
D03*
X234637Y121293D02*
D03*
X231299Y269685D02*
D03*
X97342Y47244D02*
D03*
X178307D02*
D03*
X158031D02*
D03*
X340551Y54134D02*
D03*
X344488D02*
D03*
X348425D02*
D03*
X352362D02*
D03*
X356299D02*
D03*
X340551Y50197D02*
D03*
X344488D02*
D03*
X348425D02*
D03*
X352362D02*
D03*
X356299D02*
D03*
X340551Y46260D02*
D03*
X344488D02*
D03*
X348425D02*
D03*
X352362D02*
D03*
X356299D02*
D03*
Y42323D02*
D03*
X352362D02*
D03*
X348425D02*
D03*
X344488D02*
D03*
X340551D02*
D03*
X300197Y247047D02*
D03*
X320866Y243110D02*
D03*
X510827Y192547D02*
D03*
Y215598D02*
D03*
X486221Y110236D02*
D03*
X408465Y171260D02*
D03*
X413386Y166339D02*
D03*
X421260Y155512D02*
D03*
X496673Y144685D02*
D03*
X452756Y165354D02*
D03*
X476318Y147074D02*
D03*
X463522D02*
D03*
X442913Y143701D02*
D03*
X465551Y112205D02*
D03*
X74272Y156870D02*
D03*
X48926Y157854D02*
D03*
X79193Y170650D02*
D03*
X50650Y137185D02*
D03*
X48926Y144075D02*
D03*
X65413Y150965D02*
D03*
D142*
X244094Y286634D02*
D03*
D143*
X174213Y110236D02*
D03*
X193898D02*
D03*
X157980Y329224D02*
D03*
Y309539D02*
D03*
X16732Y252953D02*
D03*
X36417D02*
D03*
X229331Y165354D02*
D03*
Y175354D02*
D03*
Y185354D02*
D03*
Y195354D02*
D03*
Y205354D02*
D03*
D144*
X484055Y48228D02*
D03*
X474055D02*
D03*
X464055D02*
D03*
X454055D02*
D03*
X444055D02*
D03*
X434055D02*
D03*
D145*
X494055D02*
D03*
D146*
X191890Y36417D02*
D03*
X103661D02*
D03*
D147*
X171890D02*
D03*
X151890D02*
D03*
X131890D02*
D03*
X83661D02*
D03*
X63661D02*
D03*
D148*
X229331Y155354D02*
D03*
D149*
X138110Y194882D02*
D03*
X118110D02*
D03*
X98110D02*
D03*
D150*
X70866Y285433D02*
D03*
Y309842D02*
D03*
D151*
X52362Y298031D02*
D03*
D152*
X104724Y328346D02*
D03*
X131496Y281890D02*
D03*
X112205Y292520D02*
D03*
Y305118D02*
D03*
Y317717D02*
D03*
X124016Y292520D02*
D03*
Y305118D02*
D03*
D153*
Y317717D02*
D03*
D154*
X289246Y225368D02*
D03*
X274267Y279348D02*
D03*
X184055Y79724D02*
D03*
X187992D02*
D03*
X191929D02*
D03*
X184055Y83661D02*
D03*
X187992D02*
D03*
X191929D02*
D03*
X184055Y87598D02*
D03*
X187992D02*
D03*
X191929D02*
D03*
X164370Y79724D02*
D03*
X168307D02*
D03*
X172244D02*
D03*
X176181D02*
D03*
X180118D02*
D03*
X164370Y83661D02*
D03*
X168307D02*
D03*
X172244D02*
D03*
X176181D02*
D03*
X180118D02*
D03*
X168307Y95472D02*
D03*
X180118D02*
D03*
Y91535D02*
D03*
X172244D02*
D03*
X168307Y99410D02*
D03*
X164370Y91535D02*
D03*
X172244Y99410D02*
D03*
Y95472D02*
D03*
X180118Y99410D02*
D03*
X164370Y95472D02*
D03*
X176181Y99410D02*
D03*
Y95472D02*
D03*
Y91535D02*
D03*
X168307D02*
D03*
X164370Y99410D02*
D03*
X198819Y246063D02*
D03*
X247047Y250984D02*
D03*
X243110D02*
D03*
X235236D02*
D03*
X231299D02*
D03*
X239173D02*
D03*
X227362D02*
D03*
X247047Y247047D02*
D03*
X243110D02*
D03*
X235236D02*
D03*
X231299D02*
D03*
X239173D02*
D03*
X227362D02*
D03*
X239173Y243110D02*
D03*
X235236D02*
D03*
X227362D02*
D03*
X231299D02*
D03*
X239173Y239173D02*
D03*
X235236D02*
D03*
X227362D02*
D03*
X231299D02*
D03*
X239173Y235236D02*
D03*
X235236D02*
D03*
X227362D02*
D03*
X231299D02*
D03*
X239173Y231299D02*
D03*
X235236D02*
D03*
X227362D02*
D03*
X231299D02*
D03*
X247047Y227362D02*
D03*
X243110D02*
D03*
X235236D02*
D03*
X231299D02*
D03*
X239173D02*
D03*
X227362D02*
D03*
X247047Y223425D02*
D03*
X243110D02*
D03*
X235236D02*
D03*
X231299D02*
D03*
X239173D02*
D03*
X227362D02*
D03*
Y219488D02*
D03*
X239173D02*
D03*
X231299D02*
D03*
X235236D02*
D03*
X243110D02*
D03*
X247047D02*
D03*
X264764Y264764D02*
D03*
Y260827D02*
D03*
Y256890D02*
D03*
Y252953D02*
D03*
Y249016D02*
D03*
X268701Y264764D02*
D03*
Y260827D02*
D03*
Y256890D02*
D03*
Y252953D02*
D03*
Y249016D02*
D03*
X292323D02*
D03*
X288386D02*
D03*
X284449D02*
D03*
X280512D02*
D03*
X276575D02*
D03*
X272638D02*
D03*
X478440Y123359D02*
D03*
X272638Y260827D02*
D03*
Y256890D02*
D03*
Y252953D02*
D03*
X276575Y260827D02*
D03*
Y256890D02*
D03*
Y252953D02*
D03*
X280512Y264764D02*
D03*
Y260827D02*
D03*
Y256890D02*
D03*
Y252953D02*
D03*
X284449Y264764D02*
D03*
Y260827D02*
D03*
Y256890D02*
D03*
Y252953D02*
D03*
X288386Y264764D02*
D03*
Y260827D02*
D03*
Y256890D02*
D03*
Y252953D02*
D03*
X292323D02*
D03*
Y256890D02*
D03*
Y260827D02*
D03*
Y264764D02*
D03*
X326611Y303465D02*
D03*
X312617Y289470D02*
D03*
X164370Y87598D02*
D03*
X168307D02*
D03*
X172244D02*
D03*
X176181D02*
D03*
X180118D02*
D03*
X26575Y212598D02*
D03*
X45728Y124390D02*
D03*
Y128327D02*
D03*
Y120453D02*
D03*
Y116516D02*
D03*
X49665Y124390D02*
D03*
Y128327D02*
D03*
Y120453D02*
D03*
Y116516D02*
D03*
X53602Y124390D02*
D03*
Y128327D02*
D03*
Y120453D02*
D03*
Y116516D02*
D03*
X57539Y124390D02*
D03*
Y128327D02*
D03*
Y120453D02*
D03*
Y116516D02*
D03*
X73287D02*
D03*
Y120453D02*
D03*
Y124390D02*
D03*
X69350Y116516D02*
D03*
X65413D02*
D03*
X61476D02*
D03*
Y120453D02*
D03*
X65413D02*
D03*
X69350D02*
D03*
X61476Y128327D02*
D03*
Y124390D02*
D03*
X69350D02*
D03*
Y128327D02*
D03*
X65413Y124390D02*
D03*
Y128327D02*
D03*
X95268Y128134D02*
D03*
X87394Y124197D02*
D03*
X91331D02*
D03*
X95268Y124198D02*
D03*
X91331Y128134D02*
D03*
X87394D02*
D03*
D155*
X362205Y224410D02*
D03*
X364173Y210630D02*
D03*
Y217520D02*
D03*
X389764Y262795D02*
D03*
X80374Y135020D02*
D03*
Y139350D02*
D03*
X76043D02*
D03*
Y135020D02*
D03*
D156*
X410370Y300206D02*
D03*
X413243Y299345D02*
D03*
X416154Y300070D02*
D03*
X418325Y302141D02*
D03*
D157*
X56945Y62547D02*
D03*
X45305Y51210D02*
D03*
X18701Y79724D02*
D03*
X45578Y94717D02*
D03*
M02*
