G04*
G04 #@! TF.GenerationSoftware,Altium Limited,Altium Designer,24.5.2 (23)*
G04*
G04 Layer_Color=32896*
%FSLAX25Y25*%
%MOIN*%
G70*
G04*
G04 #@! TF.SameCoordinates,54B51B4C-3849-4939-8346-CF3DF989E6B0*
G04*
G04*
G04 #@! TF.FilePolarity,Positive*
G04*
G01*
G75*
%ADD27C,0.03937*%
%ADD154C,0.03150*%
%ADD155C,0.02756*%
%ADD157C,0.04724*%
D27*
X65413Y150965D02*
D03*
X48926Y144075D02*
D03*
X50650Y137185D02*
D03*
X79193Y170650D02*
D03*
X48926Y157854D02*
D03*
X74272Y156870D02*
D03*
X465551Y112205D02*
D03*
X442913Y143701D02*
D03*
X463522Y147074D02*
D03*
X476318D02*
D03*
X452756Y165354D02*
D03*
X496673Y144685D02*
D03*
X421260Y155512D02*
D03*
X413386Y166339D02*
D03*
X408465Y171260D02*
D03*
X486221Y110236D02*
D03*
X510827Y215598D02*
D03*
Y192547D02*
D03*
X320866Y243110D02*
D03*
X300197Y247047D02*
D03*
X340551Y42323D02*
D03*
X344488D02*
D03*
X348425D02*
D03*
X352362D02*
D03*
X356299D02*
D03*
Y46260D02*
D03*
X352362D02*
D03*
X348425D02*
D03*
X344488D02*
D03*
X340551D02*
D03*
X356299Y50197D02*
D03*
X352362D02*
D03*
X348425D02*
D03*
X344488D02*
D03*
X340551D02*
D03*
X356299Y54134D02*
D03*
X352362D02*
D03*
X348425D02*
D03*
X344488D02*
D03*
X340551D02*
D03*
X158031Y47244D02*
D03*
X178307D02*
D03*
X97342D02*
D03*
X231299Y269685D02*
D03*
X234637Y121293D02*
D03*
X227613Y121502D02*
D03*
X229331Y99410D02*
D03*
X236653Y96713D02*
D03*
D154*
X87394Y128134D02*
D03*
X91331D02*
D03*
X95268Y124198D02*
D03*
X91331Y124197D02*
D03*
X87394D02*
D03*
X95268Y128134D02*
D03*
X65413Y128327D02*
D03*
Y124390D02*
D03*
X69350Y128327D02*
D03*
Y124390D02*
D03*
X61476D02*
D03*
Y128327D02*
D03*
X69350Y120453D02*
D03*
X65413D02*
D03*
X61476D02*
D03*
Y116516D02*
D03*
X65413D02*
D03*
X69350D02*
D03*
X73287Y124390D02*
D03*
Y120453D02*
D03*
Y116516D02*
D03*
X57539D02*
D03*
Y120453D02*
D03*
Y128327D02*
D03*
Y124390D02*
D03*
X53602Y116516D02*
D03*
Y120453D02*
D03*
Y128327D02*
D03*
Y124390D02*
D03*
X49665Y116516D02*
D03*
Y120453D02*
D03*
Y128327D02*
D03*
Y124390D02*
D03*
X45728Y116516D02*
D03*
Y120453D02*
D03*
Y128327D02*
D03*
Y124390D02*
D03*
X26575Y212598D02*
D03*
X180118Y87598D02*
D03*
X176181D02*
D03*
X172244D02*
D03*
X168307D02*
D03*
X164370D02*
D03*
X312617Y289470D02*
D03*
X326611Y303465D02*
D03*
X292323Y264764D02*
D03*
Y260827D02*
D03*
Y256890D02*
D03*
Y252953D02*
D03*
X288386D02*
D03*
Y256890D02*
D03*
Y260827D02*
D03*
Y264764D02*
D03*
X284449Y252953D02*
D03*
Y256890D02*
D03*
Y260827D02*
D03*
Y264764D02*
D03*
X280512Y252953D02*
D03*
Y256890D02*
D03*
Y260827D02*
D03*
Y264764D02*
D03*
X276575Y252953D02*
D03*
Y256890D02*
D03*
Y260827D02*
D03*
X272638Y252953D02*
D03*
Y256890D02*
D03*
Y260827D02*
D03*
X478440Y123359D02*
D03*
X272638Y249016D02*
D03*
X276575D02*
D03*
X280512D02*
D03*
X284449D02*
D03*
X288386D02*
D03*
X292323D02*
D03*
X268701D02*
D03*
Y252953D02*
D03*
Y256890D02*
D03*
Y260827D02*
D03*
Y264764D02*
D03*
X264764Y249016D02*
D03*
Y252953D02*
D03*
Y256890D02*
D03*
Y260827D02*
D03*
Y264764D02*
D03*
X247047Y219488D02*
D03*
X243110D02*
D03*
X235236D02*
D03*
X231299D02*
D03*
X239173D02*
D03*
X227362D02*
D03*
Y223425D02*
D03*
X239173D02*
D03*
X231299D02*
D03*
X235236D02*
D03*
X243110D02*
D03*
X247047D02*
D03*
X227362Y227362D02*
D03*
X239173D02*
D03*
X231299D02*
D03*
X235236D02*
D03*
X243110D02*
D03*
X247047D02*
D03*
X231299Y231299D02*
D03*
X227362D02*
D03*
X235236D02*
D03*
X239173D02*
D03*
X231299Y235236D02*
D03*
X227362D02*
D03*
X235236D02*
D03*
X239173D02*
D03*
X231299Y239173D02*
D03*
X227362D02*
D03*
X235236D02*
D03*
X239173D02*
D03*
X231299Y243110D02*
D03*
X227362D02*
D03*
X235236D02*
D03*
X239173D02*
D03*
X227362Y247047D02*
D03*
X239173D02*
D03*
X231299D02*
D03*
X235236D02*
D03*
X243110D02*
D03*
X247047D02*
D03*
X227362Y250984D02*
D03*
X239173D02*
D03*
X231299D02*
D03*
X235236D02*
D03*
X243110D02*
D03*
X247047D02*
D03*
X198819Y246063D02*
D03*
X164370Y99410D02*
D03*
X168307Y91535D02*
D03*
X176181D02*
D03*
Y95472D02*
D03*
Y99410D02*
D03*
X164370Y95472D02*
D03*
X180118Y99410D02*
D03*
X172244Y95472D02*
D03*
Y99410D02*
D03*
X164370Y91535D02*
D03*
X168307Y99410D02*
D03*
X172244Y91535D02*
D03*
X180118D02*
D03*
Y95472D02*
D03*
X168307D02*
D03*
X180118Y83661D02*
D03*
X176181D02*
D03*
X172244D02*
D03*
X168307D02*
D03*
X164370D02*
D03*
X180118Y79724D02*
D03*
X176181D02*
D03*
X172244D02*
D03*
X168307D02*
D03*
X164370D02*
D03*
X191929Y87598D02*
D03*
X187992D02*
D03*
X184055D02*
D03*
X191929Y83661D02*
D03*
X187992D02*
D03*
X184055D02*
D03*
X191929Y79724D02*
D03*
X187992D02*
D03*
X184055D02*
D03*
X274267Y279348D02*
D03*
X289246Y225368D02*
D03*
D155*
X389764Y262795D02*
D03*
X364173Y217520D02*
D03*
Y210630D02*
D03*
X362205Y224410D02*
D03*
D157*
X45578Y94717D02*
D03*
X18701Y79724D02*
D03*
X45305Y51210D02*
D03*
X56945Y62547D02*
D03*
M02*
