M48
;Layer_Color=9474304
;FILE_FORMAT=2:3
INCH,TZ
;TYPE=PLATED
T01F00S00C0.010
T02F00S00C0.012
T03F00S00C0.016
T04F00S00C0.020
T05F00S00C0.024
T06F00S00C0.031
T07F00S00C0.032
T09F00S00C0.043
T10F00S00C0.051
T11F00S00C0.059
T12F00S00C0.079
;TYPE=NON_PLATED
T13F00S00C0.039
T14F00S00C0.051
%
T01
X4162Y3001
X4183Y3021
X4132Y2993
X4104Y3002
T02
X760Y1350
X804
Y1394
X760
X3642Y2106
Y2175
X3622Y2244
X3898Y2628
T03
X4656Y1122
X4862Y1102
X4784Y1234
X3563Y541
X3524
X3484
X3445
X3406
Y502
X3445
X3484
X3524
X3563
Y463
X3524
X3484
X3445
X3406
Y423
X3445
X3484
X3524
X3563
X2367Y967
X2293Y994
X2276Y1215
X2346Y1213
X1919Y876
Y837
Y797
X1880
X1841
Y837
X1880
Y876
X1841
X1801Y876
Y837
Y797
X1762
X1722
X1683
X1644
Y837
Y876
X1683
Y837
X1722
X1762
Y876
X1722
Y915
Y955
X1683
Y915
X1644
Y955
Y994
X1683
X1722
X1762
X1801
Y955
Y915
X1762
Y955
X1783Y472
X1580
X973
X953Y1242
Y1281
X913
Y1242
X874
Y1281
X733Y1244
Y1205
Y1165
X694
Y1205
X654
Y1165
X615
X575
Y1205
X615
Y1244
X575
X536
X497
X457
Y1283
X497
X536
X575
X615
X654
X694
Y1244
X654
X536Y1205
Y1165
X497
Y1205
X457
Y1165
X266Y2126
X1988Y2461
X2274Y2470
Y2510
X2313
X2352
X2392
X2431
X2470
Y2470
X2431
X2392
Y2431
X2352
X2352Y2470
X2313
X2313Y2431
X2274
Y2392
X2313
X2352
X2392
Y2352
X2352
X2313
X2274
Y2313
X2313
X2352
X2392
Y2274
Y2234
X2431
Y2274
X2470
Y2234
Y2195
X2431
X2392
X2352
Y2234
Y2274
X2313
Y2234
X2274
Y2274
Y2195
X2313
Y2697
X2648Y2648
Y2608
Y2569
Y2530
Y2490
X2687
Y2530
Y2569
Y2608
Y2648
X2726Y2608
Y2569
Y2530
Y2490
X2766
Y2530
Y2569
Y2608
X2805
Y2648
X2844
X2884
Y2608
X2844
Y2569
X2884
Y2530
Y2490
X2844
Y2530
X2805
Y2490
Y2569
X2923
Y2530
Y2490
X3002Y2470
X2923Y2608
Y2648
X2743Y2793
X3126Y2895
X3209Y2431
X2892Y2254
X4085Y1713
X4134Y1663
X4213Y1555
X4429Y1437
X4635Y1471
X4763
X4967Y1447
X5108Y1925
Y2156
X4528Y1654
X3266Y3035
T04
X506Y1372
X489Y1441
Y1579
X654Y1510
X743Y1569
X792Y1706
T05
X453Y512
X569Y625
X456Y947
X187Y797
T06
X1742Y1102
X1939
X364Y2530
X167
X1580Y3095
Y3292
T07
X2293Y1554
Y1654
Y1754
Y1854
Y1954
Y2054
T09
X4341Y482
X4441
X4541
X4641
X4741
X4841
X4941
T10
X1122Y2925
X1240
X1315Y2819
X1240Y3051
X1122
Y3177
X1240
X1047Y3283
T11
X1037Y364
X1319
X1519
X1719
X1919
X837
X637
T12
X981Y1949
X1181
X1381
T13
X2441Y3161
T14
X2441Y2866
M30
